<?xml version="1.0" encoding="UTF-8" standalone="no"?>
<!-- Created with Inkscape (http://www.inkscape.org/) -->

<svg
   xmlns:dc="http://purl.org/dc/elements/1.1/"
   xmlns:cc="http://creativecommons.org/ns#"
   xmlns:rdf="http://www.w3.org/1999/02/22-rdf-syntax-ns#"
   xmlns:svg="http://www.w3.org/2000/svg"
   xmlns="http://www.w3.org/2000/svg"
   xmlns:sodipodi="http://sodipodi.sourceforge.net/DTD/sodipodi-0.dtd"
   xmlns:inkscape="http://www.inkscape.org/namespaces/inkscape"
   id="svg2"
   version="1.1"
   inkscape:version="0.48.4 r9939"
   width="167"
   height="167"
   xml:space="preserve"
   sodipodi:docname="actor.svg"><metadata
     id="metadata8"><rdf:RDF><cc:Work
         rdf:about=""><dc:format>image/svg+xml</dc:format><dc:type
           rdf:resource="http://purl.org/dc/dcmitype/StillImage" /><dc:title /></cc:Work></rdf:RDF></metadata><defs
     id="defs6"><clipPath
       clipPathUnits="userSpaceOnUse"
       id="clipPath16"><path
         d="m 0,9.155e-6 720,0 0,450.000000845 -720,0 L 0,9.155e-6 z"
         clip-rule="evenodd"
         id="path18"
         inkscape:connector-curvature="0" /></clipPath><clipPath
       clipPathUnits="userSpaceOnUse"
       id="clipPath50"><path
         d="M -3.298e-6,450 720,450 720,-9.155e-6 -2.926e-6,-6.104e-6"
         clip-rule="evenodd"
         id="path52"
         inkscape:connector-curvature="0" /></clipPath><clipPath
       clipPathUnits="userSpaceOnUse"
       id="clipPath96"><path
         d="M 3.36e-7,450 720,450 720,1.2207e-4 3.36e-7,1.2207e-4"
         clip-rule="evenodd"
         id="path98"
         inkscape:connector-curvature="0" /></clipPath><clipPath
       clipPathUnits="userSpaceOnUse"
       id="clipPath106"><path
         d="M 3.36e-7,450 720,450 720,1.2207e-4 3.36e-7,1.2207e-4"
         clip-rule="evenodd"
         id="path108"
         inkscape:connector-curvature="0" /></clipPath></defs><sodipodi:namedview
     pagecolor="#ffffff"
     bordercolor="#666666"
     borderopacity="1"
     objecttolerance="10"
     gridtolerance="10"
     guidetolerance="10"
     inkscape:pageopacity="0"
     inkscape:pageshadow="2"
     inkscape:window-width="1920"
     inkscape:window-height="1138"
     id="namedview4"
     showgrid="false"
     fit-margin-top="0"
     fit-margin-left="0"
     fit-margin-right="0"
     fit-margin-bottom="0"
     inkscape:zoom="1.6782222"
     inkscape:cx="-260.08105"
     inkscape:cy="2.3505499"
     inkscape:window-x="-8"
     inkscape:window-y="-8"
     inkscape:window-maximized="1"
     inkscape:current-layer="g10" /><g
     id="g10"
     inkscape:groupmode="layer"
     inkscape:label="STAB32527444444444435"
     transform="matrix(1.25,0,0,-1.25,-151.09371,424.29918)"><path
       d="m 168.32,317.79 c 0,11.38 9.23,20.61 20.61,20.61 11.38,0 20.6,-9.23 20.6,-20.61 0,-11.38 -9.22,-20.6 -20.6,-20.6 -11.38,0 -20.61,9.22 -20.61,20.6 z"
       style="fill:#c43a3c;fill-opacity:1;fill-rule:evenodd;stroke:#c43a3c;stroke-opacity:1"
       id="path26"
       inkscape:connector-curvature="0" /><path
       d="m 168.32,317.79 c 0,11.38 9.23,20.61 20.61,20.61 11.38,0 20.6,-9.23 20.6,-20.61 0,-11.38 -9.22,-20.6 -20.6,-20.6 -11.38,0 -20.61,9.22 -20.61,20.6 z"
       style="fill:#c43a3c;stroke:#c43a3c;stroke-width:2;stroke-linecap:butt;stroke-linejoin:round;stroke-miterlimit:10;stroke-opacity:1;stroke-dasharray:none;fill-opacity:1"
       id="path28"
       inkscape:connector-curvature="0" /><path
       d="m 168.34,278.53 c 0,9.69 9.22,17.54 20.6,17.54 11.38,0 20.61,-7.85 20.61,-17.54 0,-9.69 -9.23,-17.55 -20.61,-17.55 -11.38,0 -20.6,7.86 -20.6,17.55 z"
       style="fill:#c43a3c;fill-opacity:1;fill-rule:evenodd;stroke:#c43a3c;stroke-opacity:1"
       id="path30"
       inkscape:connector-curvature="0" /><path
       d="m 168.34,278.53 c 0,9.69 9.22,17.54 20.6,17.54 11.38,0 20.61,-7.85 20.61,-17.54 0,-9.69 -9.23,-17.55 -20.61,-17.55 -11.38,0 -20.6,7.86 -20.6,17.55 z"
       style="fill:#c43a3c;stroke:#c43a3c;stroke-width:2;stroke-linecap:butt;stroke-linejoin:round;stroke-miterlimit:10;stroke-opacity:1;stroke-dasharray:none;fill-opacity:1"
       id="path32"
       inkscape:connector-curvature="0" /><path
       d="m 168.26,235.25 41.326,0 0,42.041 -41.326,0 0,-42.041 z"
       style="fill:#c43a3c;fill-opacity:1;fill-rule:evenodd;stroke:#c43a3c;stroke-opacity:1"
       id="path34"
       inkscape:connector-curvature="0" /><path
       d="m 168.26,235.25 41.326,0 0,42.041 -41.326,0 0,-42.041 z"
       style="fill:#c43a3c;stroke:#c43a3c;stroke-width:2;stroke-linecap:butt;stroke-linejoin:round;stroke-miterlimit:10;stroke-opacity:1;stroke-dasharray:none;fill-opacity:1"
       id="path36"
       inkscape:connector-curvature="0" /><path
       d="m 173.62,206.83 11.775,0 0,34.001 -11.775,0 0,-34.001 z"
       style="fill:#c43a3c;fill-opacity:1;fill-rule:evenodd;stroke:#c43a3c;stroke-opacity:1"
       id="path38"
       inkscape:connector-curvature="0" /><path
       d="m 173.62,206.83 11.775,0 0,34.001 -11.775,0 0,-34.001 z"
       style="fill:#c43a3c;stroke:#c43a3c;stroke-width:2;stroke-linecap:butt;stroke-linejoin:round;stroke-miterlimit:10;stroke-opacity:1;stroke-dasharray:none;fill-opacity:1"
       id="path40"
       inkscape:connector-curvature="0" /><path
       d="m 192.5,206.83 11.775,0 0,34.001 -11.775,0 0,-34.001 z"
       style="fill:#c43a3c;fill-opacity:1;fill-rule:evenodd;stroke:#c43a3c;stroke-opacity:1"
       id="path42"
       inkscape:connector-curvature="0" /><path
       d="m 192.5,206.83 11.775,0 0,34.001 -11.775,0 0,-34.001 z"
       style="fill:#c43a3c;stroke:#c43a3c;stroke-width:2;stroke-linecap:butt;stroke-linejoin:round;stroke-miterlimit:10;stroke-opacity:1;stroke-dasharray:none;fill-opacity:1"
       id="path44"
       inkscape:connector-curvature="0" /></g></svg>