<?xml version="1.0" encoding="UTF-8" standalone="no"?>
<!-- Created with Inkscape (http://www.inkscape.org/) -->

<svg
   xmlns:dc="http://purl.org/dc/elements/1.1/"
   xmlns:cc="http://creativecommons.org/ns#"
   xmlns:rdf="http://www.w3.org/1999/02/22-rdf-syntax-ns#"
   xmlns:svg="http://www.w3.org/2000/svg"
   xmlns="http://www.w3.org/2000/svg"
   xmlns:sodipodi="http://sodipodi.sourceforge.net/DTD/sodipodi-0.dtd"
   xmlns:inkscape="http://www.inkscape.org/namespaces/inkscape"
   id="svg2"
   version="1.1"
   inkscape:version="0.48.4 r9939"
   width="146"
   height="146"
   xml:space="preserve"
   sodipodi:docname="db.svg"><metadata
     id="metadata8"><rdf:RDF><cc:Work
         rdf:about=""><dc:format>image/svg+xml</dc:format><dc:type
           rdf:resource="http://purl.org/dc/dcmitype/StillImage" /><dc:title /></cc:Work></rdf:RDF></metadata><defs
     id="defs6"><clipPath
       clipPathUnits="userSpaceOnUse"
       id="clipPath16"><path
         d="m 0,9.155e-6 720,0 0,450.000000845 -720,0 L 0,9.155e-6 z"
         clip-rule="evenodd"
         id="path18"
         inkscape:connector-curvature="0" /></clipPath><clipPath
       clipPathUnits="userSpaceOnUse"
       id="clipPath54"><path
         d="M -3.298e-6,450 720,450 720,-9.155e-6 -2.926e-6,-6.104e-6"
         clip-rule="evenodd"
         id="path56"
         inkscape:connector-curvature="0" /></clipPath><clipPath
       clipPathUnits="userSpaceOnUse"
       id="clipPath100"><path
         d="M 3.36e-7,450 720,450 720,1.2207e-4 3.36e-7,1.2207e-4"
         clip-rule="evenodd"
         id="path102"
         inkscape:connector-curvature="0" /></clipPath><clipPath
       clipPathUnits="userSpaceOnUse"
       id="clipPath110"><path
         d="M 3.36e-7,450 720,450 720,1.2207e-4 3.36e-7,1.2207e-4"
         clip-rule="evenodd"
         id="path112"
         inkscape:connector-curvature="0" /></clipPath></defs><sodipodi:namedview
     pagecolor="#ffffff"
     bordercolor="#666666"
     borderopacity="1"
     objecttolerance="10"
     gridtolerance="10"
     guidetolerance="10"
     inkscape:pageopacity="0"
     inkscape:pageshadow="2"
     inkscape:window-width="1920"
     inkscape:window-height="1138"
     id="namedview4"
     showgrid="false"
     fit-margin-top="0"
     fit-margin-left="0"
     fit-margin-right="0"
     fit-margin-bottom="0"
     inkscape:zoom="5.0587708"
     inkscape:cx="58.754511"
     inkscape:cy="74.300329"
     inkscape:window-x="-8"
     inkscape:window-y="-8"
     inkscape:window-maximized="1"
     inkscape:current-layer="g10" /><g
     id="g10"
     inkscape:groupmode="layer"
     inkscape:label="STAB"
     transform="matrix(1.25,0,0,-1.25,-635.74219,164.78906)"><path
       d="m 515.64,56.071 c 0,4.286 23.35,7.761 52.16,7.761 28.8,0 52.15,-3.475 52.15,-7.761 l 0,-31.04 c 0,-4.286 -23.35,-7.76 -52.15,-7.76 -28.81,0 -52.16,3.474 -52.16,7.76 l 0,31.04 z"
       style="fill:#aaaaaa;fill-opacity:1;fill-rule:evenodd;stroke:none"
       id="path132"
       inkscape:connector-curvature="0" /><path
       d="m 619.95,56.071 c 0,-4.285 -23.35,-7.76 -52.15,-7.76 -28.81,0 -52.16,3.475 -52.16,7.76"
       style="fill:none;stroke:#eeeeee;stroke-width:4.50000000000000000;stroke-linecap:butt;stroke-linejoin:round;stroke-miterlimit:8;stroke-opacity:1;stroke-dasharray:none"
       id="path134"
       inkscape:connector-curvature="0" /><path
       d="m 515.64,56.071 c 0,4.286 23.35,7.761 52.16,7.761 28.8,0 52.15,-3.475 52.15,-7.761 l 0,-31.04 c 0,-4.286 -23.35,-7.76 -52.15,-7.76 -28.81,0 -52.16,3.474 -52.16,7.76 l 0,31.04 z"
       style="fill:none;stroke:#eeeeee;stroke-width:4.50000000000000000;stroke-linecap:butt;stroke-linejoin:round;stroke-miterlimit:8;stroke-opacity:1;stroke-dasharray:none"
       id="path136"
       inkscape:connector-curvature="0" /><path
       d="m 515.64,88.823 c 0,4.286 23.35,7.761 52.16,7.761 28.8,0 52.15,-3.475 52.15,-7.761 l 0,-31.04 c 0,-4.286 -23.35,-7.76 -52.15,-7.76 -28.81,0 -52.16,3.474 -52.16,7.76 l 0,31.04 z"
       style="fill:#aaaaaa;fill-opacity:1;fill-rule:evenodd;stroke:none"
       id="path138"
       inkscape:connector-curvature="0" /><path
       d="m 619.95,88.823 c 0,-4.285 -23.35,-7.76 -52.15,-7.76 -28.81,0 -52.16,3.475 -52.16,7.76"
       style="fill:none;stroke:#eeeeee;stroke-width:4.50000000000000000;stroke-linecap:butt;stroke-linejoin:round;stroke-miterlimit:8;stroke-opacity:1;stroke-dasharray:none"
       id="path140"
       inkscape:connector-curvature="0" /><path
       d="m 515.64,88.823 c 0,4.286 23.35,7.761 52.16,7.761 28.8,0 52.15,-3.475 52.15,-7.761 l 0,-31.04 c 0,-4.286 -23.35,-7.76 -52.15,-7.76 -28.81,0 -52.16,3.474 -52.16,7.76 l 0,31.04 z"
       style="fill:none;stroke:#eeeeee;stroke-width:4.50000000000000000;stroke-linecap:butt;stroke-linejoin:round;stroke-miterlimit:8;stroke-opacity:1;stroke-dasharray:none"
       id="path142"
       inkscape:connector-curvature="0" /><path
       d="m 515.64,121.18 c 0,4.29 23.35,7.76 52.16,7.76 28.8,0 52.15,-3.47 52.15,-7.76 l 0,-31.039 c 0,-4.286 -23.35,-7.76 -52.15,-7.76 -28.81,0 -52.16,3.474 -52.16,7.76 l 0,31.039 z"
       style="fill:#aaaaaa;fill-opacity:1;fill-rule:evenodd;stroke:none"
       id="path144"
       inkscape:connector-curvature="0" /><path
       d="m 619.95,121.18 c 0,-4.28 -23.35,-7.76 -52.15,-7.76 -28.81,0 -52.16,3.48 -52.16,7.76"
       style="fill:none;stroke:#eeeeee;stroke-width:4.50000000000000000;stroke-linecap:butt;stroke-linejoin:round;stroke-miterlimit:8;stroke-opacity:1;stroke-dasharray:none"
       id="path146"
       inkscape:connector-curvature="0" /><path
       d="m 515.64,121.18 c 0,4.29 23.35,7.76 52.16,7.76 28.8,0 52.15,-3.47 52.15,-7.76 l 0,-31.039 c 0,-4.286 -23.35,-7.76 -52.15,-7.76 -28.81,0 -52.16,3.474 -52.16,7.76 l 0,31.039 z"
       style="fill:none;stroke:#eeeeee;stroke-width:4.50000000000000000;stroke-linecap:butt;stroke-linejoin:round;stroke-miterlimit:8;stroke-opacity:1;stroke-dasharray:none"
       id="path148"
       inkscape:connector-curvature="0" /></g></svg>