<?xml version="1.0" encoding="UTF-8" standalone="no"?>
<!-- Created with Inkscape (http://www.inkscape.org/) -->

<svg
   xmlns:dc="http://purl.org/dc/elements/1.1/"
   xmlns:cc="http://creativecommons.org/ns#"
   xmlns:rdf="http://www.w3.org/1999/02/22-rdf-syntax-ns#"
   xmlns:svg="http://www.w3.org/2000/svg"
   xmlns="http://www.w3.org/2000/svg"
   xmlns:sodipodi="http://sodipodi.sourceforge.net/DTD/sodipodi-0.dtd"
   xmlns:inkscape="http://www.inkscape.org/namespaces/inkscape"
   id="svg2"
   version="1.1"
   inkscape:version="0.48.4 r9939"
   width="160"
   height="160"
   xml:space="preserve"
   sodipodi:docname="event.pdf"
   inkscape:export-filename="C:\Users\Diocletianus\Dropbox\Amsterdam Faculty of Science\Archieroglief\event.png"
   inkscape:export-xdpi="6.75"
   inkscape:export-ydpi="6.75"><metadata
     id="metadata8"><rdf:RDF><cc:Work
         rdf:about=""><dc:format>image/svg+xml</dc:format><dc:type
           rdf:resource="http://purl.org/dc/dcmitype/StillImage" /><dc:title></dc:title></cc:Work></rdf:RDF></metadata><defs
     id="defs6"><clipPath
       clipPathUnits="userSpaceOnUse"
       id="clipPath16"><path
         d="m 0,9.155e-6 720,0 0,450.000000845 -720,0 L 0,9.155e-6 z"
         clip-rule="evenodd"
         id="path18"
         inkscape:connector-curvature="0" /></clipPath><clipPath
       clipPathUnits="userSpaceOnUse"
       id="clipPath38"><path
         d="M -1.392e-6,450 720,450 720,-9.155e-6 9.37e-7,-6.104e-6"
         clip-rule="evenodd"
         id="path40"
         inkscape:connector-curvature="0" /></clipPath><clipPath
       clipPathUnits="userSpaceOnUse"
       id="clipPath48"><path
         d="M 1.04e-7,450 720,450 720,9.155e-6 -4.341e-6,3.052e-6"
         clip-rule="evenodd"
         id="path50"
         inkscape:connector-curvature="0" /></clipPath><clipPath
       clipPathUnits="userSpaceOnUse"
       id="clipPath58"><path
         d="M 1.04e-7,450 720,450 720,9.155e-6 -4.341e-6,3.052e-6"
         clip-rule="evenodd"
         id="path60"
         inkscape:connector-curvature="0" /></clipPath><clipPath
       clipPathUnits="userSpaceOnUse"
       id="clipPath68"><path
         d="M -1.777e-6,450 720,450 720,6.104e-6 l -720.000003159,0"
         clip-rule="evenodd"
         id="path70"
         inkscape:connector-curvature="0" /></clipPath><clipPath
       clipPathUnits="userSpaceOnUse"
       id="clipPath78"><path
         d="M -1.777e-6,450 720,450 720,6.104e-6 l -720.000003159,0"
         clip-rule="evenodd"
         id="path80"
         inkscape:connector-curvature="0" /></clipPath><clipPath
       clipPathUnits="userSpaceOnUse"
       id="clipPath88"><path
         d="M -2.798e-6,450 720,450 720,1.2207e-4 -2.877e-6,9.155e-6"
         clip-rule="evenodd"
         id="path90"
         inkscape:connector-curvature="0" /></clipPath><clipPath
       clipPathUnits="userSpaceOnUse"
       id="clipPath98"><path
         d="M -2.798e-6,450 720,450 720,1.2207e-4 -2.877e-6,9.155e-6"
         clip-rule="evenodd"
         id="path100"
         inkscape:connector-curvature="0" /></clipPath><clipPath
       clipPathUnits="userSpaceOnUse"
       id="clipPath108"><path
         d="M -1.9e-6,450 720,450 720,1.2207e-4 -3.842e-6,9.155e-6"
         clip-rule="evenodd"
         id="path110"
         inkscape:connector-curvature="0" /></clipPath><clipPath
       clipPathUnits="userSpaceOnUse"
       id="clipPath118"><path
         d="M -1.9e-6,450 720,450 720,1.2207e-4 -3.842e-6,9.155e-6"
         clip-rule="evenodd"
         id="path120"
         inkscape:connector-curvature="0" /></clipPath><clipPath
       clipPathUnits="userSpaceOnUse"
       id="clipPath128"><path
         d="M -2.327e-6,450 720,450 720,1.2207e-4 l -720.000003803,0"
         clip-rule="evenodd"
         id="path130"
         inkscape:connector-curvature="0" /></clipPath><clipPath
       clipPathUnits="userSpaceOnUse"
       id="clipPath138"><path
         d="M -2.327e-6,450 720,450 720,1.2207e-4 l -720.000003803,0"
         clip-rule="evenodd"
         id="path140"
         inkscape:connector-curvature="0" /></clipPath><clipPath
       clipPathUnits="userSpaceOnUse"
       id="clipPath148"><path
         d="M 1.814e-6,450 720,450 720,6.104e-6 1.213e-6,9.155e-6"
         clip-rule="evenodd"
         id="path150"
         inkscape:connector-curvature="0" /></clipPath></defs><sodipodi:namedview
     pagecolor="#ffffff"
     bordercolor="#666666"
     borderopacity="1"
     objecttolerance="10"
     gridtolerance="10"
     guidetolerance="10"
     inkscape:pageopacity="0"
     inkscape:pageshadow="2"
     inkscape:window-width="1920"
     inkscape:window-height="1138"
     id="namedview4"
     showgrid="false"
     fit-margin-top="0"
     fit-margin-left="0"
     fit-margin-right="0"
     fit-margin-bottom="0"
     inkscape:zoom="3.1644444"
     inkscape:cx="154.93"
     inkscape:cy="114.88841"
     inkscape:window-x="-8"
     inkscape:window-y="-8"
     inkscape:window-maximized="1"
     inkscape:current-layer="g10" /><g
     id="g10"
     inkscape:groupmode="layer"
     inkscape:label="STABdemon"
     transform="matrix(1.25,0,0,-1.25,-366.64061,461.24863)"><path
       d="m 299.42618,303.56719 c 0,11.38 9.22,20.61 20.6,20.61 11.38,0 20.61,-9.23 20.61,-20.61 0,-11.38 -9.23,-20.6 -20.61,-20.6 -11.38,0 -20.6,9.22 -20.6,20.6 z"
       style="fill:#984ea3;fill-opacity:1;fill-rule:evenodd;stroke:none"
       id="path22"
       inkscape:connector-curvature="0" /><path
       d="m 299.42618,303.56719 c 0,11.38 9.22,20.61 20.6,20.61 11.38,0 20.61,-9.23 20.61,-20.61 0,-11.38 -9.23,-20.6 -20.61,-20.6 -11.38,0 -20.6,9.22 -20.6,20.6 z"
       style="fill:none;stroke:#984ea3;stroke-width:2;stroke-linecap:butt;stroke-linejoin:round;stroke-miterlimit:10;stroke-opacity:1;stroke-dasharray:none"
       id="path24"
       inkscape:connector-curvature="0" /><path
       d="m 299.43618,264.30719 c 0,9.69 9.23,17.54 20.61,17.54 11.38,0 20.61,-7.85 20.61,-17.54 0,-9.69 -9.23,-17.55 -20.61,-17.55 -11.38,0 -20.61,7.86 -20.61,17.55 z"
       style="fill:#984ea3;fill-opacity:1;fill-rule:evenodd;stroke:none;stroke-opacity:1"
       id="path26"
       inkscape:connector-curvature="0" /><path
       d="m 299.43618,264.30719 c 0,9.69 9.23,17.54 20.61,17.54 11.38,0 20.61,-7.85 20.61,-17.54 0,-9.69 -9.23,-17.55 -20.61,-17.55 -11.38,0 -20.61,7.86 -20.61,17.55 z"
       style="fill:#984ea3;stroke:#984ea3;stroke-width:2;stroke-linecap:butt;stroke-linejoin:round;stroke-miterlimit:10;stroke-opacity:1;stroke-dasharray:none;fill-opacity:1"
       id="path28"
       inkscape:connector-curvature="0" /><path
       d="m 299.36618,241.75719 41.326,0 0,21.315 -41.326,0 0,-21.315 z"
       style="fill:#984ea3;fill-opacity:1;fill-rule:evenodd;stroke:#984ea3;stroke-opacity:1"
       id="path30"
       inkscape:connector-curvature="0" /><path
       d="m 299.36618,241.75719 41.326,0 0,21.315 -41.326,0 0,-21.315 z"
       style="fill:none;stroke:#984ea3;stroke-width:2;stroke-linecap:butt;stroke-linejoin:round;stroke-miterlimit:10;stroke-opacity:1;stroke-dasharray:none"
       id="path32"
       inkscape:connector-curvature="0" /><g
       id="g44"
       transform="translate(5.0561798,-0.25280899)"><g
         id="g46"
         clip-path="url(#clipPath48)"><path
           d="m 323.92,266.65 6.33,9.93 16.36,-10.42 -6.33,-9.93 -16.36,10.42 z"
           style="fill:#000000;fill-opacity:1;fill-rule:evenodd;stroke:none"
           id="path52"
           inkscape:connector-curvature="0" /></g></g><g
       id="g54"
       transform="translate(5.0561798,-0.25280899)"
       style="stroke:#984ea3;stroke-opacity:1;fill:#984ea3;fill-opacity:1"><g
         id="g56"
         clip-path="url(#clipPath58)"
         style="stroke:#984ea3;stroke-opacity:1;fill:#984ea3;fill-opacity:1"><path
           d="m 323.92,266.65 6.33,9.93 16.36,-10.42 -6.33,-9.93 -16.36,10.42 z"
           style="fill:#984ea3;stroke:#984ea3;stroke-width:2;stroke-linecap:butt;stroke-linejoin:round;stroke-miterlimit:10;stroke-opacity:1;stroke-dasharray:none;fill-opacity:1"
           id="path62"
           inkscape:connector-curvature="0" /></g></g><g
       id="g64"
       transform="translate(5.0561798,-0.25280899)"
       style="stroke:#984ea3;stroke-opacity:1;fill:#984ea3;fill-opacity:1"><g
         id="g66"
         clip-path="url(#clipPath68)"
         style="stroke:#984ea3;stroke-opacity:1;fill:#984ea3;fill-opacity:1"><path
           d="m 342.79,276.31 11.71,-1.27 -2.2,-20.26 -11.7,1.27 2.19,20.26 z"
           style="fill:#984ea3;fill-opacity:1;fill-rule:evenodd;stroke:#984ea3;stroke-opacity:1"
           id="path72"
           inkscape:connector-curvature="0" /></g></g><g
       id="g74"
       transform="translate(5.0561798,-0.25280899)"
       style="fill:#984ea3;fill-opacity:1;stroke:#984ea3;stroke-opacity:1"><g
         id="g76"
         clip-path="url(#clipPath78)"
         style="fill:#984ea3;fill-opacity:1;stroke:#984ea3;stroke-opacity:1"><path
           d="m 342.79,276.31 11.71,-1.27 -2.2,-20.26 -11.7,1.27 2.19,20.26 z"
           style="fill:#984ea3;stroke:#984ea3;stroke-width:2;stroke-linecap:butt;stroke-linejoin:round;stroke-miterlimit:10;stroke-opacity:1;stroke-dasharray:none;fill-opacity:1"
           id="path82"
           inkscape:connector-curvature="0" /></g></g><g
       id="g84"
       transform="translate(5.0561798,-0.25280899)"><g
         id="g86"
         clip-path="url(#clipPath88)"><path
           d="m 349.63,281.35 4.8,-10.76 -31.05,-13.85 -4.8,10.76 31.05,13.85 z"
           style="fill:#000000;fill-opacity:1;fill-rule:evenodd;stroke:none"
           id="path92"
           inkscape:connector-curvature="0" /></g></g><g
       id="g94"
       transform="translate(5.0561798,-0.25280899)"
       style="fill:#984ea3;fill-opacity:1;stroke:#984ea3;stroke-opacity:1"><g
         id="g96"
         clip-path="url(#clipPath98)"
         style="fill:#984ea3;fill-opacity:1;stroke:#984ea3;stroke-opacity:1"><path
           d="m 349.63,281.35 4.8,-10.76 -31.05,-13.85 -4.8,10.76 31.05,13.85 z"
           style="fill:#984ea3;stroke:#984ea3;stroke-width:2;stroke-linecap:butt;stroke-linejoin:round;stroke-miterlimit:10;stroke-opacity:1;stroke-dasharray:none;fill-opacity:1"
           id="path102"
           inkscape:connector-curvature="0" /></g></g><g
       id="g104"
       transform="translate(5.0561798,-0.25280899)"
       style="fill:#984ea3;fill-opacity:1"><g
         id="g106"
         clip-path="url(#clipPath108)"
         style="fill:#984ea3;fill-opacity:1"><path
           d="m 329.53,365.76 83.78,-21.75 -15.67,-60.37 -83.78,21.75 15.67,60.37 z"
           style="fill:#984ea3;fill-opacity:1;fill-rule:evenodd;stroke:none"
           id="path112"
           inkscape:connector-curvature="0" /></g></g><g
       id="g114"
       transform="translate(5.0561798,-0.25280899)"><g
         id="g116"
         clip-path="url(#clipPath118)"><path
           d="m 329.53,365.76 83.78,-21.75 -15.67,-60.37 -83.78,21.75 15.67,60.37 z"
           style="fill:none;stroke:#ffffff;stroke-width:4.5;stroke-linecap:butt;stroke-linejoin:miter;stroke-miterlimit:8;stroke-opacity:1;stroke-dasharray:none"
           id="path122"
           inkscape:connector-curvature="0" /></g></g><g
       id="g124"
       transform="translate(5.0561798,-0.25280899)"><g
         id="g126"
         clip-path="url(#clipPath128)"><path
           d="m 356.86,305.94 3.88,-1.01 -10.02,-38.6 -3.88,1.01 10.02,38.6 z"
           style="fill:#000000;fill-opacity:1;fill-rule:evenodd;stroke:none"
           id="path132"
           inkscape:connector-curvature="0" /></g></g><g
       id="g134"
       transform="translate(5.0561798,-0.25280899)"
       style="fill:#984ea3;fill-opacity:1;stroke:#984ea3;stroke-opacity:1"><g
         id="g136"
         clip-path="url(#clipPath138)"
         style="fill:#984ea3;fill-opacity:1;stroke:#984ea3;stroke-opacity:1"><path
           d="m 356.86,305.94 3.88,-1.01 -10.02,-38.6 -3.88,1.01 10.02,38.6 z"
           style="fill:#984ea3;stroke:#984ea3;stroke-width:4.50000000000000000;stroke-linecap:butt;stroke-linejoin:round;stroke-miterlimit:10;stroke-opacity:1;stroke-dasharray:none;fill-opacity:1"
           id="path142"
           inkscape:connector-curvature="0" /></g></g><g
       id="g144"
       transform="translate(5.0561798,-0.25280899)"
       style="stroke:none;stroke-opacity:1;fill:#984ea3;fill-opacity:1"><g
         id="g146"
         clip-path="url(#clipPath148)"
         style="stroke:none;stroke-opacity:1;fill:#984ea3;fill-opacity:1"><path
           d="m 306.9,333.57 c 0.06,-0.99 -0.24,-1.87 -0.9,-2.63 -0.67,-0.76 -1.53,-1.17 -2.58,-1.23 -1.08,-0.06 -2,0.24 -2.74,0.92 -0.75,0.68 -1.15,1.52 -1.21,2.51 -0.05,0.97 0.25,1.82 0.91,2.57 0.66,0.74 1.54,1.15 2.62,1.21 1.06,0.06 1.96,-0.24 2.7,-0.9 0.75,-0.67 1.15,-1.48 1.2,-2.45 z m -1.75,6.61 -4.7,-0.28 -2.18,19.33 6.86,0.4 0.02,-19.45 z"
           style="fill:#984ea3;fill-opacity:1;fill-rule:nonzero;stroke:none;stroke-opacity:1"
           id="path152"
           inkscape:connector-curvature="0" /></g></g></g></svg>