<?xml version="1.0" encoding="UTF-8" standalone="no"?>
<!-- Created with Inkscape (http://www.inkscape.org/) -->

<svg
   xmlns:dc="http://purl.org/dc/elements/1.1/"
   xmlns:cc="http://creativecommons.org/ns#"
   xmlns:rdf="http://www.w3.org/1999/02/22-rdf-syntax-ns#"
   xmlns:svg="http://www.w3.org/2000/svg"
   xmlns="http://www.w3.org/2000/svg"
   xmlns:sodipodi="http://sodipodi.sourceforge.net/DTD/sodipodi-0.dtd"
   xmlns:inkscape="http://www.inkscape.org/namespaces/inkscape"
   id="svg2"
   version="1.1"
   inkscape:version="0.48.4 r9939"
   width="119"
   height="119"
   xml:space="preserve"
   sodipodi:docname="STAB.pdf"><metadata
     id="metadata8"><rdf:RDF><cc:Work
         rdf:about=""><dc:format>image/svg+xml</dc:format><dc:type
           rdf:resource="http://purl.org/dc/dcmitype/StillImage" /><dc:title></dc:title></cc:Work></rdf:RDF></metadata><defs
     id="defs6"><clipPath
       clipPathUnits="userSpaceOnUse"
       id="clipPath16"><path
         d="m 0,9.155e-6 720,0 0,450.000000845 -720,0 L 0,9.155e-6 z"
         clip-rule="evenodd"
         id="path18"
         inkscape:connector-curvature="0" /></clipPath><clipPath
       clipPathUnits="userSpaceOnUse"
       id="clipPath38"><path
         d="M -1.392e-6,450 720,450 720,-9.155e-6 9.37e-7,-6.104e-6"
         clip-rule="evenodd"
         id="path40"
         inkscape:connector-curvature="0" /></clipPath><clipPath
       clipPathUnits="userSpaceOnUse"
       id="clipPath48"><path
         d="M 1.04e-7,450 720,450 720,9.155e-6 -4.341e-6,3.052e-6"
         clip-rule="evenodd"
         id="path50"
         inkscape:connector-curvature="0" /></clipPath><clipPath
       clipPathUnits="userSpaceOnUse"
       id="clipPath58"><path
         d="M 1.04e-7,450 720,450 720,9.155e-6 -4.341e-6,3.052e-6"
         clip-rule="evenodd"
         id="path60"
         inkscape:connector-curvature="0" /></clipPath><clipPath
       clipPathUnits="userSpaceOnUse"
       id="clipPath68"><path
         d="M -1.777e-6,450 720,450 720,6.104e-6 l -720.000003159,0"
         clip-rule="evenodd"
         id="path70"
         inkscape:connector-curvature="0" /></clipPath><clipPath
       clipPathUnits="userSpaceOnUse"
       id="clipPath78"><path
         d="M -1.777e-6,450 720,450 720,6.104e-6 l -720.000003159,0"
         clip-rule="evenodd"
         id="path80"
         inkscape:connector-curvature="0" /></clipPath><clipPath
       clipPathUnits="userSpaceOnUse"
       id="clipPath88"><path
         d="M -2.798e-6,450 720,450 720,1.2207e-4 -2.877e-6,9.155e-6"
         clip-rule="evenodd"
         id="path90"
         inkscape:connector-curvature="0" /></clipPath><clipPath
       clipPathUnits="userSpaceOnUse"
       id="clipPath98"><path
         d="M -2.798e-6,450 720,450 720,1.2207e-4 -2.877e-6,9.155e-6"
         clip-rule="evenodd"
         id="path100"
         inkscape:connector-curvature="0" /></clipPath><clipPath
       clipPathUnits="userSpaceOnUse"
       id="clipPath108"><path
         d="M -1.9e-6,450 720,450 720,1.2207e-4 -3.842e-6,9.155e-6"
         clip-rule="evenodd"
         id="path110"
         inkscape:connector-curvature="0" /></clipPath><clipPath
       clipPathUnits="userSpaceOnUse"
       id="clipPath118"><path
         d="M -1.9e-6,450 720,450 720,1.2207e-4 -3.842e-6,9.155e-6"
         clip-rule="evenodd"
         id="path120"
         inkscape:connector-curvature="0" /></clipPath><clipPath
       clipPathUnits="userSpaceOnUse"
       id="clipPath128"><path
         d="M -2.327e-6,450 720,450 720,1.2207e-4 l -720.000003803,0"
         clip-rule="evenodd"
         id="path130"
         inkscape:connector-curvature="0" /></clipPath><clipPath
       clipPathUnits="userSpaceOnUse"
       id="clipPath138"><path
         d="M -2.327e-6,450 720,450 720,1.2207e-4 l -720.000003803,0"
         clip-rule="evenodd"
         id="path140"
         inkscape:connector-curvature="0" /></clipPath><clipPath
       clipPathUnits="userSpaceOnUse"
       id="clipPath148"><path
         d="M 1.814e-6,450 720,450 720,6.104e-6 1.213e-6,9.155e-6"
         clip-rule="evenodd"
         id="path150"
         inkscape:connector-curvature="0" /></clipPath><clipPath
       clipPathUnits="userSpaceOnUse"
       id="clipPath160"><path
         d="M -2.273e-6,450 720,450 720,-9.155e-6 -8.03e-7,-3.052e-6"
         clip-rule="evenodd"
         id="path162"
         inkscape:connector-curvature="0" /></clipPath><clipPath
       clipPathUnits="userSpaceOnUse"
       id="clipPath170"><path
         d="M -2.273e-6,450 720,450 720,-9.155e-6 -8.03e-7,-3.052e-6"
         clip-rule="evenodd"
         id="path172"
         inkscape:connector-curvature="0" /></clipPath></defs><sodipodi:namedview
     pagecolor="#ffffff"
     bordercolor="#666666"
     borderopacity="1"
     objecttolerance="10"
     gridtolerance="10"
     guidetolerance="10"
     inkscape:pageopacity="0"
     inkscape:pageshadow="2"
     inkscape:window-width="1920"
     inkscape:window-height="1138"
     id="namedview4"
     showgrid="false"
     fit-margin-top="0"
     fit-margin-left="0"
     fit-margin-right="0"
     fit-margin-bottom="0"
     inkscape:zoom="2.0364675"
     inkscape:cx="135.71784"
     inkscape:cy="161.73096"
     inkscape:window-x="-8"
     inkscape:window-y="-8"
     inkscape:window-maximized="1"
     inkscape:current-layer="g10" /><g
     id="g10"
     inkscape:groupmode="layer"
     inkscape:label="STAB"
     transform="matrix(1.25,0,0,-1.25,-91.875,212.24219)"><path
       d="m 76.504,77.582 68.039,0 0,68.039 -68.039,0 0,-68.039 z"
       style="fill:none;stroke:#000000;stroke-width:6;stroke-linecap:butt;stroke-linejoin:miter;stroke-miterlimit:8;stroke-opacity:1;stroke-dasharray:none"
       id="path154"
       inkscape:connector-curvature="0" /><g
       id="g156"><g
         id="g158"
         clip-path="url(#clipPath160)"><path
           d="m 108.69,90.26 40.09,40.09 18.28,-18.27 0,56.13 -56.13,0 18.27,-18.28 -40.091,-40.09 19.581,-19.58 z"
           style="fill:#000000;fill-opacity:1;fill-rule:evenodd;stroke:none"
           id="path164"
           inkscape:connector-curvature="0" /></g></g><g
       id="g166"><g
         id="g168"
         clip-path="url(#clipPath170)"><path
           d="m 108.69,90.26 40.09,40.09 18.28,-18.27 0,56.13 -56.13,0 18.27,-18.28 -40.091,-40.09 19.581,-19.58 z"
           style="fill:none;stroke:#000000;stroke-width:2;stroke-linecap:butt;stroke-linejoin:miter;stroke-miterlimit:8;stroke-opacity:1;stroke-dasharray:none"
           id="path174"
           inkscape:connector-curvature="0" /></g></g></g></svg>