<?xml version="1.0" encoding="UTF-8" standalone="no"?>
<!-- Created with Inkscape (http://www.inkscape.org/) -->

<svg
   xmlns:dc="http://purl.org/dc/elements/1.1/"
   xmlns:cc="http://creativecommons.org/ns#"
   xmlns:rdf="http://www.w3.org/1999/02/22-rdf-syntax-ns#"
   xmlns:svg="http://www.w3.org/2000/svg"
   xmlns="http://www.w3.org/2000/svg"
   xmlns:sodipodi="http://sodipodi.sourceforge.net/DTD/sodipodi-0.dtd"
   xmlns:inkscape="http://www.inkscape.org/namespaces/inkscape"
   id="svg2"
   version="1.1"
   inkscape:version="0.48.4 r9939"
   width="144"
   height="144"
   xml:space="preserve"
   sodipodi:docname="eye.svg"><metadata
     id="metadata8"><rdf:RDF><cc:Work
         rdf:about=""><dc:format>image/svg+xml</dc:format><dc:type
           rdf:resource="http://purl.org/dc/dcmitype/StillImage" /><dc:title /></cc:Work></rdf:RDF></metadata><defs
     id="defs6"><clipPath
       clipPathUnits="userSpaceOnUse"
       id="clipPath16"><path
         d="m 0,1.2207e-4 720,0 0,539.99999793 -720,0 L 0,1.2207e-4 z"
         clip-rule="evenodd"
         id="path18"
         inkscape:connector-curvature="0" /></clipPath></defs><sodipodi:namedview
     pagecolor="#ffffff"
     bordercolor="#666666"
     borderopacity="1"
     objecttolerance="10"
     gridtolerance="10"
     guidetolerance="10"
     inkscape:pageopacity="0"
     inkscape:pageshadow="2"
     inkscape:window-width="1920"
     inkscape:window-height="1138"
     id="namedview4"
     showgrid="false"
     fit-margin-top="0"
     fit-margin-left="0"
     fit-margin-right="0"
     fit-margin-bottom="0"
     inkscape:zoom="3.9556077"
     inkscape:cx="212.91522"
     inkscape:cy="50.861694"
     inkscape:window-x="-8"
     inkscape:window-y="-8"
     inkscape:window-maximized="1"
     inkscape:current-layer="g10" /><g
     id="g10"
     inkscape:groupmode="layer"
     inkscape:label="eye"
     transform="matrix(1.25,0,0,-1.25,-355.58594,544.9375)"><path
       d="m 287.14805,342.04026 55.07,87.88 55.07,-87.88 -110.14,0 z"
       style="fill:#000000;fill-opacity:1;fill-rule:evenodd;stroke:none"
       id="path46"
       inkscape:connector-curvature="0" /><path
       d="m 319.53805,372.09026 c 0,12.53 10.15,22.68 22.68,22.68 12.53,0 22.68,-10.15 22.68,-22.68 0,-12.52 -10.15,-22.67 -22.68,-22.67 -12.53,0 -22.68,10.15 -22.68,22.67 z"
       style="fill:#ffffff;fill-opacity:1;fill-rule:evenodd;stroke:none"
       id="path50"
       inkscape:connector-curvature="0" /><path
       d="m 319.53805,372.09026 c 0,12.53 10.15,22.68 22.68,22.68 12.53,0 22.68,-10.15 22.68,-22.68 0,-12.52 -10.15,-22.67 -22.68,-22.67 -12.53,0 -22.68,10.15 -22.68,22.67 z"
       style="fill:none;stroke:#ffffff;stroke-width:2;stroke-linecap:butt;stroke-linejoin:round;stroke-miterlimit:8;stroke-opacity:1;stroke-dasharray:none"
       id="path52"
       inkscape:connector-curvature="0" /><path
       d="m 333.71805,372.09026 c 0,4.7 3.8,8.51 8.5,8.51 4.7,0 8.51,-3.81 8.51,-8.51 0,-4.69 -3.81,-8.5 -8.51,-8.5 -4.7,0 -8.5,3.81 -8.5,8.5 z"
       style="fill:#000000;fill-opacity:1;fill-rule:evenodd;stroke:none"
       id="path54"
       inkscape:connector-curvature="0" /><path
       d="m 333.71805,372.09026 c 0,4.7 3.8,8.51 8.5,8.51 4.7,0 8.51,-3.81 8.51,-8.51 0,-4.69 -3.81,-8.5 -8.51,-8.5 -4.7,0 -8.5,3.81 -8.5,8.5 z"
       style="fill:none;stroke:#000000;stroke-width:2;stroke-linecap:butt;stroke-linejoin:round;stroke-miterlimit:8;stroke-opacity:1;stroke-dasharray:none"
       id="path56"
       inkscape:connector-curvature="0" /><path
       d="m 331.40269,413.60026 21.75461,0"
       style="fill:none;stroke:#ffffff;stroke-width:2;stroke-linecap:butt;stroke-linejoin:round;stroke-miterlimit:8;stroke-opacity:1;stroke-dasharray:none"
       id="path58"
       inkscape:connector-curvature="0"
       sodipodi:nodetypes="cc" /></g></svg>