<?xml version="1.0" encoding="UTF-8" standalone="no"?>
<!-- Created with Inkscape (http://www.inkscape.org/) -->

<svg
   xmlns:dc="http://purl.org/dc/elements/1.1/"
   xmlns:cc="http://creativecommons.org/ns#"
   xmlns:rdf="http://www.w3.org/1999/02/22-rdf-syntax-ns#"
   xmlns:svg="http://www.w3.org/2000/svg"
   xmlns="http://www.w3.org/2000/svg"
   xmlns:sodipodi="http://sodipodi.sourceforge.net/DTD/sodipodi-0.dtd"
   xmlns:inkscape="http://www.inkscape.org/namespaces/inkscape"
   id="svg2"
   version="1.1"
   inkscape:version="0.48.4 r9939"
   width="453.03024"
   height="219.36403"
   xml:space="preserve"
   sodipodi:docname="STAB2222222.pdf"><metadata
     id="metadata8"><rdf:RDF><cc:Work
         rdf:about=""><dc:format>image/svg+xml</dc:format><dc:type
           rdf:resource="http://purl.org/dc/dcmitype/StillImage" /><dc:title></dc:title></cc:Work></rdf:RDF></metadata><defs
     id="defs6"><clipPath
       clipPathUnits="userSpaceOnUse"
       id="clipPath16"><path
         d="m 0,9.155e-6 720,0 0,450.000000845 -720,0 L 0,9.155e-6 z"
         clip-rule="evenodd"
         id="path18"
         inkscape:connector-curvature="0" /></clipPath><clipPath
       clipPathUnits="userSpaceOnUse"
       id="clipPath26"><path
         d="M -6.714e-6,450 720,450 720,1.2207e-4 -6.68e-6,9.155e-6"
         clip-rule="evenodd"
         id="path28"
         inkscape:connector-curvature="0" /></clipPath><clipPath
       clipPathUnits="userSpaceOnUse"
       id="clipPath36"><path
         d="M -6.714e-6,450 720,450 720,1.2207e-4 -6.68e-6,9.155e-6"
         clip-rule="evenodd"
         id="path38"
         inkscape:connector-curvature="0" /></clipPath><clipPath
       clipPathUnits="userSpaceOnUse"
       id="clipPath46"><path
         d="M -4.378e-6,450 720,450 720,1.2207e-4 -4.345e-6,9.155e-6"
         clip-rule="evenodd"
         id="path48"
         inkscape:connector-curvature="0" /></clipPath><clipPath
       clipPathUnits="userSpaceOnUse"
       id="clipPath56"><path
         d="M -4.378e-6,450 720,450 720,1.2207e-4 -4.345e-6,9.155e-6"
         clip-rule="evenodd"
         id="path58"
         inkscape:connector-curvature="0" /></clipPath><clipPath
       clipPathUnits="userSpaceOnUse"
       id="clipPath66"><path
         d="M -4.378e-6,450 720,450 720,1.2207e-4 -4.345e-6,9.155e-6"
         clip-rule="evenodd"
         id="path68"
         inkscape:connector-curvature="0" /></clipPath><clipPath
       clipPathUnits="userSpaceOnUse"
       id="clipPath76"><path
         d="M 1.588e-6,450 720,450 720,1.2207e-4 -2.31e-6,1.5259e-4"
         clip-rule="evenodd"
         id="path78"
         inkscape:connector-curvature="0" /></clipPath><clipPath
       clipPathUnits="userSpaceOnUse"
       id="clipPath86"><path
         d="M 1.588e-6,450 720,450 720,1.2207e-4 -2.31e-6,1.5259e-4"
         clip-rule="evenodd"
         id="path88"
         inkscape:connector-curvature="0" /></clipPath><clipPath
       clipPathUnits="userSpaceOnUse"
       id="clipPath96"><path
         d="M -5.11e-6,450 720,450 720,9.155e-6 -5.076e-6,6.104e-6"
         clip-rule="evenodd"
         id="path98"
         inkscape:connector-curvature="0" /></clipPath><clipPath
       clipPathUnits="userSpaceOnUse"
       id="clipPath106"><path
         d="M -5.11e-6,450 720,450 720,9.155e-6 -5.076e-6,6.104e-6"
         clip-rule="evenodd"
         id="path108"
         inkscape:connector-curvature="0" /></clipPath><clipPath
       clipPathUnits="userSpaceOnUse"
       id="clipPath116"><path
         d="M -4.901e-6,450 720,450 720,9.155e-6 -7.455e-6,3.052e-6"
         clip-rule="evenodd"
         id="path118"
         inkscape:connector-curvature="0" /></clipPath><clipPath
       clipPathUnits="userSpaceOnUse"
       id="clipPath128"><path
         d="M -8.38e-7,450 720,450 720,-3.052e-6 -4.144e-6,0"
         clip-rule="evenodd"
         id="path130"
         inkscape:connector-curvature="0" /></clipPath><clipPath
       clipPathUnits="userSpaceOnUse"
       id="clipPath138"><path
         d="M -8.38e-7,450 720,450 720,-3.052e-6 -4.144e-6,0"
         clip-rule="evenodd"
         id="path140"
         inkscape:connector-curvature="0" /></clipPath><clipPath
       clipPathUnits="userSpaceOnUse"
       id="clipPath148"><path
         d="M 1.43e-7,450 720,450 720,-6.104e-6 -3.163e-6,-3.052e-6"
         clip-rule="evenodd"
         id="path150"
         inkscape:connector-curvature="0" /></clipPath><clipPath
       clipPathUnits="userSpaceOnUse"
       id="clipPath158"><path
         d="M 1.43e-7,450 720,450 720,-6.104e-6 -3.163e-6,-3.052e-6"
         clip-rule="evenodd"
         id="path160"
         inkscape:connector-curvature="0" /></clipPath><clipPath
       clipPathUnits="userSpaceOnUse"
       id="clipPath168"><path
         d="M 5.93e-7,450 720,450 720,-3.052e-6 -2.713e-6,0"
         clip-rule="evenodd"
         id="path170"
         inkscape:connector-curvature="0" /></clipPath><clipPath
       clipPathUnits="userSpaceOnUse"
       id="clipPath178"><path
         d="M 5.93e-7,450 720,450 720,-3.052e-6 -2.713e-6,0"
         clip-rule="evenodd"
         id="path180"
         inkscape:connector-curvature="0" /></clipPath><clipPath
       clipPathUnits="userSpaceOnUse"
       id="clipPath188"><path
         d="M -4.55e-7,450 720,450 720,-3.052e-6 -3.761e-6,0"
         clip-rule="evenodd"
         id="path190"
         inkscape:connector-curvature="0" /></clipPath><clipPath
       clipPathUnits="userSpaceOnUse"
       id="clipPath198"><path
         d="M -4.55e-7,450 720,450 720,-3.052e-6 -3.761e-6,0"
         clip-rule="evenodd"
         id="path200"
         inkscape:connector-curvature="0" /></clipPath><clipPath
       clipPathUnits="userSpaceOnUse"
       id="clipPath208"><path
         d="M -6.84e-7,450 720,450 720,-6.104e-6 -2.076e-6,0"
         clip-rule="evenodd"
         id="path210"
         inkscape:connector-curvature="0" /></clipPath><clipPath
       clipPathUnits="userSpaceOnUse"
       id="clipPath218"><path
         d="M -6.84e-7,450 720,450 720,-6.104e-6 -2.076e-6,0"
         clip-rule="evenodd"
         id="path220"
         inkscape:connector-curvature="0" /></clipPath><clipPath
       clipPathUnits="userSpaceOnUse"
       id="clipPath228"><path
         d="M 9.47e-7,450 720,450 720,-6.104e-6 -4.45e-7,-3.052e-6"
         clip-rule="evenodd"
         id="path230"
         inkscape:connector-curvature="0" /></clipPath><clipPath
       clipPathUnits="userSpaceOnUse"
       id="clipPath238"><path
         d="M 9.47e-7,450 720,450 720,-6.104e-6 -4.45e-7,-3.052e-6"
         clip-rule="evenodd"
         id="path240"
         inkscape:connector-curvature="0" /></clipPath><clipPath
       clipPathUnits="userSpaceOnUse"
       id="clipPath248"><path
         d="M -5.58e-7,450 720,450 720,-3.052e-6 -1.95e-6,0"
         clip-rule="evenodd"
         id="path250"
         inkscape:connector-curvature="0" /></clipPath><clipPath
       clipPathUnits="userSpaceOnUse"
       id="clipPath258"><path
         d="M -5.58e-7,450 720,450 720,-3.052e-6 -1.95e-6,0"
         clip-rule="evenodd"
         id="path260"
         inkscape:connector-curvature="0" /></clipPath><clipPath
       clipPathUnits="userSpaceOnUse"
       id="clipPath268"><path
         d="M -1.565e-6,450 720,450 720,-6.104e-6 -4.871e-6,-3.052e-6"
         clip-rule="evenodd"
         id="path270"
         inkscape:connector-curvature="0" /></clipPath><clipPath
       clipPathUnits="userSpaceOnUse"
       id="clipPath278"><path
         d="M -1.565e-6,450 720,450 720,-6.104e-6 -4.871e-6,-3.052e-6"
         clip-rule="evenodd"
         id="path280"
         inkscape:connector-curvature="0" /></clipPath><clipPath
       clipPathUnits="userSpaceOnUse"
       id="clipPath288"><path
         d="M -2.155e-6,450 720,450 720,-3.052e-6 -5.461e-6,0"
         clip-rule="evenodd"
         id="path290"
         inkscape:connector-curvature="0" /></clipPath><clipPath
       clipPathUnits="userSpaceOnUse"
       id="clipPath298"><path
         d="M -2.155e-6,450 720,450 720,-3.052e-6 -5.461e-6,0"
         clip-rule="evenodd"
         id="path300"
         inkscape:connector-curvature="0" /></clipPath><clipPath
       clipPathUnits="userSpaceOnUse"
       id="clipPath312"><path
         d="M -8.9e-7,450 720,450 720,0 -2.858e-6,3.052e-6"
         clip-rule="evenodd"
         id="path314"
         inkscape:connector-curvature="0" /></clipPath><clipPath
       clipPathUnits="userSpaceOnUse"
       id="clipPath322"><path
         d="M -8.9e-7,450 720,450 720,0 -2.858e-6,3.052e-6"
         clip-rule="evenodd"
         id="path324"
         inkscape:connector-curvature="0" /></clipPath><clipPath
       clipPathUnits="userSpaceOnUse"
       id="clipPath332"><path
         d="M 1.58e-7,450 720,450 720,0 -1.81e-6,3.052e-6"
         clip-rule="evenodd"
         id="path334"
         inkscape:connector-curvature="0" /></clipPath><clipPath
       clipPathUnits="userSpaceOnUse"
       id="clipPath342"><path
         d="M 1.58e-7,450 720,450 720,0 -1.81e-6,3.052e-6"
         clip-rule="evenodd"
         id="path344"
         inkscape:connector-curvature="0" /></clipPath><clipPath
       clipPathUnits="userSpaceOnUse"
       id="clipPath352"><path
         d="M -1.427e-6,450 720,450 720,9.155e-6 l -720.000001427,0"
         clip-rule="evenodd"
         id="path354"
         inkscape:connector-curvature="0" /></clipPath><clipPath
       clipPathUnits="userSpaceOnUse"
       id="clipPath362"><path
         d="M -1.427e-6,450 720,450 720,9.155e-6 l -720.000001427,0"
         clip-rule="evenodd"
         id="path364"
         inkscape:connector-curvature="0" /></clipPath><clipPath
       clipPathUnits="userSpaceOnUse"
       id="clipPath372"><path
         d="M -9.13e-7,450 720,450 720,1.2207e-4 -2.631e-6,9.155e-6"
         clip-rule="evenodd"
         id="path374"
         inkscape:connector-curvature="0" /></clipPath><clipPath
       clipPathUnits="userSpaceOnUse"
       id="clipPath382"><path
         d="M -9.13e-7,450 720,450 720,1.2207e-4 -2.631e-6,9.155e-6"
         clip-rule="evenodd"
         id="path384"
         inkscape:connector-curvature="0" /></clipPath><clipPath
       clipPathUnits="userSpaceOnUse"
       id="clipPath392"><path
         d="M 7.02e-7,450 720,450 720,9.155e-6 -1.595e-6,6.104e-6"
         clip-rule="evenodd"
         id="path394"
         inkscape:connector-curvature="0" /></clipPath><clipPath
       clipPathUnits="userSpaceOnUse"
       id="clipPath402"><path
         d="M 7.02e-7,450 720,450 720,9.155e-6 -1.595e-6,6.104e-6"
         clip-rule="evenodd"
         id="path404"
         inkscape:connector-curvature="0" /></clipPath><clipPath
       clipPathUnits="userSpaceOnUse"
       id="clipPath412"><path
         d="M 1.086e-6,450 720,450 720,1.2207e-4 -8.98e-7,9.155e-6"
         clip-rule="evenodd"
         id="path414"
         inkscape:connector-curvature="0" /></clipPath><clipPath
       clipPathUnits="userSpaceOnUse"
       id="clipPath422"><path
         d="M 1.086e-6,450 720,450 720,1.2207e-4 -8.98e-7,9.155e-6"
         clip-rule="evenodd"
         id="path424"
         inkscape:connector-curvature="0" /></clipPath><clipPath
       clipPathUnits="userSpaceOnUse"
       id="clipPath432"><path
         d="M -2.221e-6,450 720,450 720,1.8311e-4 -1.363e-6,6.104e-6"
         clip-rule="evenodd"
         id="path434"
         inkscape:connector-curvature="0" /></clipPath><clipPath
       clipPathUnits="userSpaceOnUse"
       id="clipPath442"><path
         d="M -2.221e-6,450 720,450 720,1.8311e-4 -1.363e-6,6.104e-6"
         clip-rule="evenodd"
         id="path444"
         inkscape:connector-curvature="0" /></clipPath><clipPath
       clipPathUnits="userSpaceOnUse"
       id="clipPath452"><path
         d="M -2.04e-6,450 720,450 720,9.155e-6 -4.643e-6,3.052e-6"
         clip-rule="evenodd"
         id="path454"
         inkscape:connector-curvature="0" /></clipPath><clipPath
       clipPathUnits="userSpaceOnUse"
       id="clipPath462"><path
         d="M -2.04e-6,450 720,450 720,9.155e-6 -4.643e-6,3.052e-6"
         clip-rule="evenodd"
         id="path464"
         inkscape:connector-curvature="0" /></clipPath><clipPath
       clipPathUnits="userSpaceOnUse"
       id="clipPath472"><path
         d="M -1.75e-6,450 720,450 720,6.104e-6 -3.348e-6,0"
         clip-rule="evenodd"
         id="path474"
         inkscape:connector-curvature="0" /></clipPath><clipPath
       clipPathUnits="userSpaceOnUse"
       id="clipPath482"><path
         d="M -1.75e-6,450 720,450 720,6.104e-6 -3.348e-6,0"
         clip-rule="evenodd"
         id="path484"
         inkscape:connector-curvature="0" /></clipPath><clipPath
       clipPathUnits="userSpaceOnUse"
       id="clipPath492"><path
         d="M -5.48e-7,450 720,450 720,9.155e-6 l -720.00000276,0"
         clip-rule="evenodd"
         id="path494"
         inkscape:connector-curvature="0" /></clipPath><clipPath
       clipPathUnits="userSpaceOnUse"
       id="clipPath502"><path
         d="M -5.48e-7,450 720,450 720,9.155e-6 l -720.00000276,0"
         clip-rule="evenodd"
         id="path504"
         inkscape:connector-curvature="0" /></clipPath><clipPath
       clipPathUnits="userSpaceOnUse"
       id="clipPath512"><path
         d="M -9.74e-7,450 720,450 720,9.155e-6 -4.881e-6,6.104e-6"
         clip-rule="evenodd"
         id="path514"
         inkscape:connector-curvature="0" /></clipPath><clipPath
       clipPathUnits="userSpaceOnUse"
       id="clipPath522"><path
         d="M -9.74e-7,450 720,450 720,9.155e-6 -4.881e-6,6.104e-6"
         clip-rule="evenodd"
         id="path524"
         inkscape:connector-curvature="0" /></clipPath><clipPath
       clipPathUnits="userSpaceOnUse"
       id="clipPath532"><path
         d="M 6.92e-7,450 720,450 720,9.155e-6 -3.216e-6,6.104e-6"
         clip-rule="evenodd"
         id="path534"
         inkscape:connector-curvature="0" /></clipPath><clipPath
       clipPathUnits="userSpaceOnUse"
       id="clipPath542"><path
         d="M 6.92e-7,450 720,450 720,9.155e-6 -3.216e-6,6.104e-6"
         clip-rule="evenodd"
         id="path544"
         inkscape:connector-curvature="0" /></clipPath><clipPath
       clipPathUnits="userSpaceOnUse"
       id="clipPath552"><path
         d="M 7.56e-7,450 720,450 720,9.155e-6 -3.151e-6,9.155e-6"
         clip-rule="evenodd"
         id="path554"
         inkscape:connector-curvature="0" /></clipPath><clipPath
       clipPathUnits="userSpaceOnUse"
       id="clipPath562"><path
         d="M 7.56e-7,450 720,450 720,9.155e-6 -3.151e-6,9.155e-6"
         clip-rule="evenodd"
         id="path564"
         inkscape:connector-curvature="0" /></clipPath><clipPath
       clipPathUnits="userSpaceOnUse"
       id="clipPath572"><path
         d="M -1.265e-6,450 720,450 720,9.155e-6 l -720.000001265,0"
         clip-rule="evenodd"
         id="path574"
         inkscape:connector-curvature="0" /></clipPath><clipPath
       clipPathUnits="userSpaceOnUse"
       id="clipPath582"><path
         d="M -1.265e-6,450 720,450 720,9.155e-6 l -720.000001265,0"
         clip-rule="evenodd"
         id="path584"
         inkscape:connector-curvature="0" /></clipPath><clipPath
       clipPathUnits="userSpaceOnUse"
       id="clipPath592"><path
         d="M -4.151e-6,450 720,450 720,9.155e-6 -4.838e-6,9.155e-6"
         clip-rule="evenodd"
         id="path594"
         inkscape:connector-curvature="0" /></clipPath><clipPath
       clipPathUnits="userSpaceOnUse"
       id="clipPath602"><path
         d="M -4.151e-6,450 720,450 720,9.155e-6 -4.838e-6,9.155e-6"
         clip-rule="evenodd"
         id="path604"
         inkscape:connector-curvature="0" /></clipPath><clipPath
       clipPathUnits="userSpaceOnUse"
       id="clipPath612"><path
         d="M -1.456e-6,450 720,450 720,9.155e-6 -5.581e-6,6.104e-6"
         clip-rule="evenodd"
         id="path614"
         inkscape:connector-curvature="0" /></clipPath><clipPath
       clipPathUnits="userSpaceOnUse"
       id="clipPath622"><path
         d="M -1.456e-6,450 720,450 720,9.155e-6 -5.581e-6,6.104e-6"
         clip-rule="evenodd"
         id="path624"
         inkscape:connector-curvature="0" /></clipPath><clipPath
       clipPathUnits="userSpaceOnUse"
       id="clipPath632"><path
         d="M -2.794e-6,450 720,450 720,6.104e-6 -5.229e-6,0"
         clip-rule="evenodd"
         id="path634"
         inkscape:connector-curvature="0" /></clipPath><clipPath
       clipPathUnits="userSpaceOnUse"
       id="clipPath642"><path
         d="M -2.794e-6,450 720,450 720,6.104e-6 -5.229e-6,0"
         clip-rule="evenodd"
         id="path644"
         inkscape:connector-curvature="0" /></clipPath><clipPath
       clipPathUnits="userSpaceOnUse"
       id="clipPath652"><path
         d="M -5.3e-8,450 720,450 720,3.052e-6 -4.98e-6,0"
         clip-rule="evenodd"
         id="path654"
         inkscape:connector-curvature="0" /></clipPath><clipPath
       clipPathUnits="userSpaceOnUse"
       id="clipPath662"><path
         d="M -5.3e-8,450 720,450 720,3.052e-6 -4.98e-6,0"
         clip-rule="evenodd"
         id="path664"
         inkscape:connector-curvature="0" /></clipPath><clipPath
       clipPathUnits="userSpaceOnUse"
       id="clipPath676"><path
         d="M -4.78e-6,450 720,450 720,-3.052e-6 -5.24e-6,-3.052e-6"
         clip-rule="evenodd"
         id="path678"
         inkscape:connector-curvature="0" /></clipPath><clipPath
       clipPathUnits="userSpaceOnUse"
       id="clipPath686"><path
         d="M -4.78e-6,450 720,450 720,-3.052e-6 -5.24e-6,-3.052e-6"
         clip-rule="evenodd"
         id="path688"
         inkscape:connector-curvature="0" /></clipPath><clipPath
       clipPathUnits="userSpaceOnUse"
       id="clipPath696"><path
         d="M 8.58e-7,450 720,450 720,9.155e-6 -2.377e-6,1.2207e-4"
         clip-rule="evenodd"
         id="path698"
         inkscape:connector-curvature="0" /></clipPath><clipPath
       clipPathUnits="userSpaceOnUse"
       id="clipPath706"><path
         d="M 8.58e-7,450 720,450 720,9.155e-6 -2.377e-6,1.2207e-4"
         clip-rule="evenodd"
         id="path708"
         inkscape:connector-curvature="0" /></clipPath></defs><sodipodi:namedview
     pagecolor="#ffffff"
     bordercolor="#666666"
     borderopacity="1"
     objecttolerance="10"
     gridtolerance="10"
     guidetolerance="10"
     inkscape:pageopacity="0"
     inkscape:pageshadow="2"
     inkscape:window-width="1920"
     inkscape:window-height="1138"
     id="namedview4"
     showgrid="false"
     fit-margin-top="0"
     fit-margin-left="0"
     fit-margin-right="0"
     fit-margin-bottom="0"
     inkscape:zoom="1.150227"
     inkscape:cx="496.00844"
     inkscape:cy="75.551142"
     inkscape:window-x="-8"
     inkscape:window-y="-8"
     inkscape:window-maximized="1"
     inkscape:current-layer="g10" /><g
     id="g10"
     inkscape:groupmode="layer"
     inkscape:label="STAB2222222"
     transform="matrix(1.25,0,0,-1.25,-238.78906,387.76037)"><g
       id="g22"><g
         id="g24"
         clip-path="url(#clipPath26)"><path
           d="m 536.37,309.16 11.04,-26.12 5.04,-27.91 -11.03,26.12 -5.05,27.91 z"
           style="fill:#000000;fill-opacity:1;fill-rule:evenodd;stroke:none"
           id="path30"
           inkscape:connector-curvature="0" /></g></g><g
       id="g32"><g
         id="g34"
         clip-path="url(#clipPath36)"><path
           d="m 536.37,309.16 11.04,-26.12 5.04,-27.91 -11.03,26.12 -5.05,27.91 z"
           style="fill:none;stroke:#000000;stroke-width:2;stroke-linecap:butt;stroke-linejoin:round;stroke-miterlimit:10;stroke-opacity:1;stroke-dasharray:none"
           id="path40"
           inkscape:connector-curvature="0" /></g></g><g
       id="g42"><g
         id="g44"
         clip-path="url(#clipPath46)"><path
           d="m 539.36,294.44 c 0.94,0.28 3.39,-5.17 5.47,-12.17 2.08,-7.01 3.02,-12.91 2.08,-13.19 l -6.76,-2.01 c -0.93,-0.28 -3.38,5.17 -5.47,12.18 -2.08,7 -3.01,12.9 -2.08,13.18 l 6.76,2.01 z"
           style="fill:#000000;fill-opacity:1;fill-rule:evenodd;stroke:none"
           id="path50"
           inkscape:connector-curvature="0" /></g></g><g
       id="g52"><g
         id="g54"
         clip-path="url(#clipPath56)"><path
           d="m 546.91,269.08 c -0.93,-0.28 -3.38,5.18 -5.46,12.18 -2.09,7 -3.02,12.91 -2.09,13.18"
           style="fill:none;stroke:#000000;stroke-width:2;stroke-linecap:butt;stroke-linejoin:round;stroke-miterlimit:10;stroke-opacity:1;stroke-dasharray:none"
           id="path60"
           inkscape:connector-curvature="0" /></g></g><g
       id="g62"><g
         id="g64"
         clip-path="url(#clipPath66)"><path
           d="m 539.36,294.44 c 0.94,0.28 3.39,-5.17 5.47,-12.17 2.08,-7.01 3.02,-12.91 2.08,-13.19 l -6.76,-2.01 c -0.93,-0.28 -3.38,5.17 -5.47,12.18 -2.08,7 -3.01,12.9 -2.08,13.18 l 6.76,2.01 z"
           style="fill:none;stroke:#000000;stroke-width:2;stroke-linecap:butt;stroke-linejoin:round;stroke-miterlimit:10;stroke-opacity:1;stroke-dasharray:none"
           id="path70"
           inkscape:connector-curvature="0" /></g></g><g
       id="g72"><g
         id="g74"
         clip-path="url(#clipPath76)"><path
           d="m 521.22,297.78 c 0.36,0.62 1.17,0.82 1.8,0.46 0.38,-0.23 0.76,-0.45 1.14,-0.67 -0.22,-0.37 -0.44,-0.75 -0.66,-1.12 -0.36,-0.62 -1.17,-0.82 -1.79,-0.45 -0.63,0.37 -0.85,1.17 -0.49,1.78 z"
           style="fill:#000000;fill-opacity:1;fill-rule:evenodd;stroke:none"
           id="path80"
           inkscape:connector-curvature="0" /></g></g><g
       id="g82"><g
         id="g84"
         clip-path="url(#clipPath86)"><path
           d="m 521.22,297.78 c 0.36,0.62 1.17,0.82 1.8,0.46 0.38,-0.23 0.76,-0.45 1.14,-0.67 -0.22,-0.37 -0.44,-0.75 -0.66,-1.12 -0.36,-0.62 -1.17,-0.82 -1.79,-0.45 -0.63,0.37 -0.85,1.17 -0.49,1.78 z"
           style="fill:none;stroke:#000000;stroke-width:2;stroke-linecap:butt;stroke-linejoin:round;stroke-miterlimit:10;stroke-opacity:1;stroke-dasharray:none"
           id="path90"
           inkscape:connector-curvature="0" /></g></g><g
       id="g92"><g
         id="g94"
         clip-path="url(#clipPath96)"><path
           d="m 521.94,298.37 8.79,1.93 0.38,-1.27 -8.42,-3.19 -0.75,2.53 z"
           style="fill:#000000;fill-opacity:1;fill-rule:evenodd;stroke:none"
           id="path100"
           inkscape:connector-curvature="0" /></g></g><g
       id="g102"><g
         id="g104"
         clip-path="url(#clipPath106)"><path
           d="m 521.94,298.37 8.79,1.93 0.38,-1.27 -8.42,-3.19 -0.75,2.53 z"
           style="fill:none;stroke:#000000;stroke-width:2;stroke-linecap:butt;stroke-linejoin:round;stroke-miterlimit:10;stroke-opacity:1;stroke-dasharray:none"
           id="path110"
           inkscape:connector-curvature="0" /></g></g><g
       id="g112"><g
         id="g114"
         clip-path="url(#clipPath116)"><path
           d="m 528.28,298.88 10.25,3.05"
           style="fill:none;stroke:#000000;stroke-width:3;stroke-linecap:butt;stroke-linejoin:round;stroke-miterlimit:10;stroke-opacity:1;stroke-dasharray:none"
           id="path120"
           inkscape:connector-curvature="0" /></g></g><path
       d="m 261.31,185.83 c 20.42,0 40.85,6.29 40.85,12.58 0,6.29 16.43,12.58 32.86,12.58"
       style="fill:none;stroke:#000000;stroke-width:6;stroke-linecap:butt;stroke-linejoin:round;stroke-miterlimit:10;stroke-opacity:1;stroke-dasharray:none"
       id="path122"
       inkscape:connector-curvature="0" /><g
       id="g124"><g
         id="g126"
         clip-path="url(#clipPath128)"><path
           d="m 330.05,191.76 -7.02,29.35 44.09,10.55 7.02,-29.36 -44.09,-10.54 z"
           style="fill:#000000;fill-opacity:1;fill-rule:evenodd;stroke:none"
           id="path132"
           inkscape:connector-curvature="0" /></g></g><g
       id="g134"><g
         id="g136"
         clip-path="url(#clipPath138)"><path
           d="m 330.05,191.76 -7.02,29.35 44.09,10.55 7.02,-29.36 -44.09,-10.54 z"
           style="fill:none;stroke:#000000;stroke-width:2;stroke-linecap:butt;stroke-linejoin:round;stroke-miterlimit:10;stroke-opacity:1;stroke-dasharray:none"
           id="path142"
           inkscape:connector-curvature="0" /></g></g><g
       id="g144"><g
         id="g146"
         clip-path="url(#clipPath148)"><path
           d="m 323.8,217.9 -3.5,0.86 2.73,2.35 0.77,-3.21 z"
           style="fill:#000000;fill-opacity:1;fill-rule:evenodd;stroke:none"
           id="path152"
           inkscape:connector-curvature="0" /></g></g><g
       id="g154"><g
         id="g156"
         clip-path="url(#clipPath158)"><path
           d="m 323.8,217.9 -3.5,0.86 2.73,2.35 0.77,-3.21 z"
           style="fill:none;stroke:#000000;stroke-width:2;stroke-linecap:butt;stroke-linejoin:round;stroke-miterlimit:10;stroke-opacity:1;stroke-dasharray:none"
           id="path162"
           inkscape:connector-curvature="0" /></g></g><g
       id="g164"><g
         id="g166"
         clip-path="url(#clipPath168)"><path
           d="m 324.69,214.17 -3.5,0.86 2.73,2.36 0.77,-3.22 z"
           style="fill:#000000;fill-opacity:1;fill-rule:evenodd;stroke:none"
           id="path172"
           inkscape:connector-curvature="0" /></g></g><g
       id="g174"><g
         id="g176"
         clip-path="url(#clipPath178)"><path
           d="m 324.69,214.17 -3.5,0.86 2.73,2.36 0.77,-3.22 z"
           style="fill:none;stroke:#000000;stroke-width:2;stroke-linecap:butt;stroke-linejoin:round;stroke-miterlimit:10;stroke-opacity:1;stroke-dasharray:none"
           id="path182"
           inkscape:connector-curvature="0" /></g></g><g
       id="g184"><g
         id="g186"
         clip-path="url(#clipPath188)"><path
           d="m 325.58,210.44 -3.5,0.87 2.73,2.35 0.77,-3.22 z"
           style="fill:#000000;fill-opacity:1;fill-rule:evenodd;stroke:none"
           id="path192"
           inkscape:connector-curvature="0" /></g></g><g
       id="g194"><g
         id="g196"
         clip-path="url(#clipPath198)"><path
           d="m 325.58,210.44 -3.5,0.87 2.73,2.35 0.77,-3.22 z"
           style="fill:none;stroke:#000000;stroke-width:2;stroke-linecap:butt;stroke-linejoin:round;stroke-miterlimit:10;stroke-opacity:1;stroke-dasharray:none"
           id="path202"
           inkscape:connector-curvature="0" /></g></g><g
       id="g204"><g
         id="g206"
         clip-path="url(#clipPath208)"><path
           d="m 326.47,206.71 -3.49,0.87 2.72,2.35 0.77,-3.22 z"
           style="fill:#000000;fill-opacity:1;fill-rule:evenodd;stroke:none"
           id="path212"
           inkscape:connector-curvature="0" /></g></g><g
       id="g214"><g
         id="g216"
         clip-path="url(#clipPath218)"><path
           d="m 326.47,206.71 -3.49,0.87 2.72,2.35 0.77,-3.22 z"
           style="fill:none;stroke:#000000;stroke-width:2;stroke-linecap:butt;stroke-linejoin:round;stroke-miterlimit:10;stroke-opacity:1;stroke-dasharray:none"
           id="path222"
           inkscape:connector-curvature="0" /></g></g><g
       id="g224"><g
         id="g226"
         clip-path="url(#clipPath228)"><path
           d="m 327.37,202.94 -3.49,0.86 2.72,2.35 0.77,-3.21 z"
           style="fill:#000000;fill-opacity:1;fill-rule:evenodd;stroke:none"
           id="path232"
           inkscape:connector-curvature="0" /></g></g><g
       id="g234"><g
         id="g236"
         clip-path="url(#clipPath238)"><path
           d="m 327.37,202.94 -3.49,0.86 2.72,2.35 0.77,-3.21 z"
           style="fill:none;stroke:#000000;stroke-width:2;stroke-linecap:butt;stroke-linejoin:round;stroke-miterlimit:10;stroke-opacity:1;stroke-dasharray:none"
           id="path242"
           inkscape:connector-curvature="0" /></g></g><g
       id="g244"><g
         id="g246"
         clip-path="url(#clipPath248)"><path
           d="m 328.26,199.21 -3.49,0.86 2.73,2.36 0.76,-3.22 z"
           style="fill:#000000;fill-opacity:1;fill-rule:evenodd;stroke:none"
           id="path252"
           inkscape:connector-curvature="0" /></g></g><g
       id="g254"><g
         id="g256"
         clip-path="url(#clipPath258)"><path
           d="m 328.26,199.21 -3.49,0.86 2.73,2.36 0.76,-3.22 z"
           style="fill:none;stroke:#000000;stroke-width:2;stroke-linecap:butt;stroke-linejoin:round;stroke-miterlimit:10;stroke-opacity:1;stroke-dasharray:none"
           id="path262"
           inkscape:connector-curvature="0" /></g></g><g
       id="g264"><g
         id="g266"
         clip-path="url(#clipPath268)"><path
           d="m 329.16,195.48 -3.5,0.87 2.73,2.35 0.77,-3.22 z"
           style="fill:#000000;fill-opacity:1;fill-rule:evenodd;stroke:none"
           id="path272"
           inkscape:connector-curvature="0" /></g></g><g
       id="g274"><g
         id="g276"
         clip-path="url(#clipPath278)"><path
           d="m 329.16,195.48 -3.5,0.87 2.73,2.35 0.77,-3.22 z"
           style="fill:none;stroke:#000000;stroke-width:2;stroke-linecap:butt;stroke-linejoin:round;stroke-miterlimit:10;stroke-opacity:1;stroke-dasharray:none"
           id="path282"
           inkscape:connector-curvature="0" /></g></g><g
       id="g284"><g
         id="g286"
         clip-path="url(#clipPath288)"><path
           d="m 330.05,191.76 -3.5,0.86 2.73,2.35 0.77,-3.21 z"
           style="fill:#000000;fill-opacity:1;fill-rule:evenodd;stroke:none"
           id="path292"
           inkscape:connector-curvature="0" /></g></g><g
       id="g294"><g
         id="g296"
         clip-path="url(#clipPath298)"><path
           d="m 330.05,191.76 -3.5,0.86 2.73,2.35 0.77,-3.21 z"
           style="fill:none;stroke:#000000;stroke-width:2;stroke-linecap:butt;stroke-linejoin:round;stroke-miterlimit:10;stroke-opacity:1;stroke-dasharray:none"
           id="path302"
           inkscape:connector-curvature="0" /></g></g><path
       d="m 192.04,197.18 c 0,10 8.1,18.11 18.1,18.11 10,0 18.1,-8.11 18.1,-18.11 0,-9.99 -8.1,-18.1 -18.1,-18.1 -10,0 -18.1,8.11 -18.1,18.1 z"
       style="fill:#000000;fill-opacity:1;fill-rule:evenodd;stroke:none"
       id="path304"
       inkscape:connector-curvature="0" /><path
       d="m 192.04,197.18 c 0,10 8.1,18.11 18.1,18.11 10,0 18.1,-8.11 18.1,-18.11 0,-9.99 -8.1,-18.1 -18.1,-18.1 -10,0 -18.1,8.11 -18.1,18.1 z"
       style="fill:none;stroke:#000000;stroke-width:2;stroke-linecap:butt;stroke-linejoin:round;stroke-miterlimit:10;stroke-opacity:1;stroke-dasharray:none"
       id="path306"
       inkscape:connector-curvature="0" /><g
       id="g308"><g
         id="g310"
         clip-path="url(#clipPath312)"><path
           d="m 228.1,166.29 c -5.59,0 -10.12,6.75 -10.12,15.07 0,8.32 4.53,15.07 10.12,15.07 5.59,0 10.12,-6.75 10.12,-15.07 0,-8.32 -4.53,-15.07 -10.12,-15.07 z"
           style="fill:#000000;fill-opacity:1;fill-rule:evenodd;stroke:none"
           id="path316"
           inkscape:connector-curvature="0" /></g></g><g
       id="g318"><g
         id="g320"
         clip-path="url(#clipPath322)"><path
           d="m 228.1,166.29 c -5.59,0 -10.12,6.75 -10.12,15.07 0,8.32 4.53,15.07 10.12,15.07 5.59,0 10.12,-6.75 10.12,-15.07 0,-8.32 -4.53,-15.07 -10.12,-15.07 z"
           style="fill:none;stroke:#000000;stroke-width:2;stroke-linecap:butt;stroke-linejoin:round;stroke-miterlimit:10;stroke-opacity:1;stroke-dasharray:none"
           id="path326"
           inkscape:connector-curvature="0" /></g></g><g
       id="g328"><g
         id="g330"
         clip-path="url(#clipPath332)"><path
           d="m 228.81,166.23 44.855,0 0,30.227 -44.855,0 0,-30.227 z"
           style="fill:#000000;fill-opacity:1;fill-rule:evenodd;stroke:none"
           id="path336"
           inkscape:connector-curvature="0" /></g></g><g
       id="g338"><g
         id="g340"
         clip-path="url(#clipPath342)"><path
           d="m 228.81,166.23 44.855,0 0,30.227 -44.855,0 0,-30.227 z"
           style="fill:none;stroke:#000000;stroke-width:2;stroke-linecap:butt;stroke-linejoin:round;stroke-miterlimit:10;stroke-opacity:1;stroke-dasharray:none"
           id="path346"
           inkscape:connector-curvature="0" /></g></g><g
       id="g348"><g
         id="g350"
         clip-path="url(#clipPath352)"><path
           d="m 273.67,196.43 c 5.58,0 10.12,-6.75 10.12,-15.07 0,-8.33 -4.54,-15.07 -10.12,-15.07 -5.59,0 -10.12,6.74 -10.12,15.07 0,8.32 4.53,15.07 10.12,15.07 z"
           style="fill:#000000;fill-opacity:1;fill-rule:evenodd;stroke:none"
           id="path356"
           inkscape:connector-curvature="0" /></g></g><g
       id="g358"><g
         id="g360"
         clip-path="url(#clipPath362)"><path
           d="m 273.67,196.43 c 5.58,0 10.12,-6.75 10.12,-15.07 0,-8.33 -4.54,-15.07 -10.12,-15.07 -5.59,0 -10.12,6.74 -10.12,15.07 0,8.32 4.53,15.07 10.12,15.07 z"
           style="fill:none;stroke:#000000;stroke-width:2;stroke-linecap:butt;stroke-linejoin:round;stroke-miterlimit:10;stroke-opacity:1;stroke-dasharray:none"
           id="path366"
           inkscape:connector-curvature="0" /></g></g><g
       id="g368"><g
         id="g370"
         clip-path="url(#clipPath372)"><path
           d="m 211.59,215.61 9.59,8.42 1.26,-12.7 -10.85,4.28 z"
           style="fill:#000000;fill-opacity:1;fill-rule:evenodd;stroke:none"
           id="path376"
           inkscape:connector-curvature="0" /></g></g><g
       id="g378"><g
         id="g380"
         clip-path="url(#clipPath382)"><path
           d="m 211.59,215.61 9.59,8.42 1.26,-12.7 -10.85,4.28 z"
           style="fill:none;stroke:#000000;stroke-width:2;stroke-linecap:butt;stroke-linejoin:round;stroke-miterlimit:10;stroke-opacity:1;stroke-dasharray:none"
           id="path386"
           inkscape:connector-curvature="0" /></g></g><g
       id="g388"><g
         id="g390"
         clip-path="url(#clipPath392)"><path
           d="m 195.23,208.16 -2.26,12.22 10.61,-6.48 -8.35,-5.74 z"
           style="fill:#000000;fill-opacity:1;fill-rule:evenodd;stroke:none"
           id="path396"
           inkscape:connector-curvature="0" /></g></g><g
       id="g398"><g
         id="g400"
         clip-path="url(#clipPath402)"><path
           d="m 195.23,208.16 -2.26,12.22 10.61,-6.48 -8.35,-5.74 z"
           style="fill:none;stroke:#000000;stroke-width:2;stroke-linecap:butt;stroke-linejoin:round;stroke-miterlimit:10;stroke-opacity:1;stroke-dasharray:none"
           id="path406"
           inkscape:connector-curvature="0" /></g></g><g
       id="g408"><g
         id="g410"
         clip-path="url(#clipPath412)"><path
           d="m 222.02,177.64 10.41,-5.89 -16.99,-30.05 -10.41,5.88 16.99,30.06 z"
           style="fill:#000000;fill-opacity:1;fill-rule:evenodd;stroke:none"
           id="path416"
           inkscape:connector-curvature="0" /></g></g><g
       id="g418"><g
         id="g420"
         clip-path="url(#clipPath422)"><path
           d="m 222.02,177.64 10.41,-5.89 -16.99,-30.05 -10.41,5.88 16.99,30.06 z"
           style="fill:none;stroke:#000000;stroke-width:2;stroke-linecap:butt;stroke-linejoin:round;stroke-miterlimit:10;stroke-opacity:1;stroke-dasharray:none"
           id="path426"
           inkscape:connector-curvature="0" /></g></g><g
       id="g428"><g
         id="g430"
         clip-path="url(#clipPath432)"><path
           d="m 221.51,181.42 7.02,-9.68 -27.96,-20.26 -7.02,9.68 27.96,20.26 z"
           style="fill:#000000;fill-opacity:1;fill-rule:evenodd;stroke:none"
           id="path436"
           inkscape:connector-curvature="0" /></g></g><g
       id="g438"><g
         id="g440"
         clip-path="url(#clipPath442)"><path
           d="m 221.51,181.42 7.02,-9.68 -27.96,-20.26 -7.02,9.68 27.96,20.26 z"
           style="fill:none;stroke:#000000;stroke-width:2;stroke-linecap:butt;stroke-linejoin:round;stroke-miterlimit:10;stroke-opacity:1;stroke-dasharray:none"
           id="path446"
           inkscape:connector-curvature="0" /></g></g><g
       id="g448"><g
         id="g450"
         clip-path="url(#clipPath452)"><path
           d="m 269.69,167.54 6.86,9.79 28.28,-19.8 -6.85,-9.79 -28.29,19.8 z"
           style="fill:#000000;fill-opacity:1;fill-rule:evenodd;stroke:none"
           id="path456"
           inkscape:connector-curvature="0" /></g></g><g
       id="g458"><g
         id="g460"
         clip-path="url(#clipPath462)"><path
           d="m 269.69,167.54 6.86,9.79 28.28,-19.8 -6.85,-9.79 -28.29,19.8 z"
           style="fill:none;stroke:#000000;stroke-width:2;stroke-linecap:butt;stroke-linejoin:round;stroke-miterlimit:10;stroke-opacity:1;stroke-dasharray:none"
           id="path466"
           inkscape:connector-curvature="0" /></g></g><g
       id="g468"><g
         id="g470"
         clip-path="url(#clipPath472)"><path
           d="m 268.83,172.75 5.23,10.75 31.06,-15.09 -5.23,-10.75 -31.06,15.09 z"
           style="fill:#000000;fill-opacity:1;fill-rule:evenodd;stroke:none"
           id="path476"
           inkscape:connector-curvature="0" /></g></g><g
       id="g478"><g
         id="g480"
         clip-path="url(#clipPath482)"><path
           d="m 268.83,172.75 5.23,10.75 31.06,-15.09 -5.23,-10.75 -31.06,15.09 z"
           style="fill:none;stroke:#000000;stroke-width:2;stroke-linecap:butt;stroke-linejoin:round;stroke-miterlimit:10;stroke-opacity:1;stroke-dasharray:none"
           id="path486"
           inkscape:connector-curvature="0" /></g></g><g
       id="g488"><g
         id="g490"
         clip-path="url(#clipPath492)"><path
           d="m 199.55,184.84 c -1.51,3.36 1.2,7.25 6.06,8.67 4.86,1.43 10.01,-0.14 11.52,-3.51 0.3,-0.66 0.44,-1.37 0.41,-2.09 l -17.99,-3.07 z"
           style="fill:#ffffff;fill-opacity:1;fill-rule:evenodd;stroke:none"
           id="path496"
           inkscape:connector-curvature="0" /></g></g><g
       id="g498"><g
         id="g500"
         clip-path="url(#clipPath502)"><path
           d="m 199.55,184.84 c -1.51,3.36 1.2,7.25 6.06,8.67 4.86,1.43 10.01,-0.14 11.52,-3.51 0.3,-0.66 0.44,-1.37 0.41,-2.09 l -17.99,-3.07 z"
           style="fill:none;stroke:#ffffff;stroke-width:2;stroke-linecap:butt;stroke-linejoin:round;stroke-miterlimit:10;stroke-opacity:1;stroke-dasharray:none"
           id="path506"
           inkscape:connector-curvature="0" /></g></g><g
       id="g508"><g
         id="g510"
         clip-path="url(#clipPath512)"><path
           d="m 452.05,260.28 c -3.9,12.16 2.8,25.18 14.96,29.08 12.16,3.9 25.18,-2.8 29.08,-14.96 3.9,-12.16 -2.8,-25.18 -14.96,-29.08 -12.16,-3.9 -25.18,2.8 -29.08,14.96 z"
           style="fill:#000000;fill-opacity:1;fill-rule:evenodd;stroke:none"
           id="path516"
           inkscape:connector-curvature="0" /></g></g><g
       id="g518"><g
         id="g520"
         clip-path="url(#clipPath522)"><path
           d="m 452.05,260.28 c -3.9,12.16 2.8,25.18 14.96,29.08 12.16,3.9 25.18,-2.8 29.08,-14.96 3.9,-12.16 -2.8,-25.18 -14.96,-29.08 -12.16,-3.9 -25.18,2.8 -29.08,14.96 z"
           style="fill:none;stroke:#000000;stroke-width:2;stroke-linecap:butt;stroke-linejoin:round;stroke-miterlimit:10;stroke-opacity:1;stroke-dasharray:none"
           id="path526"
           inkscape:connector-curvature="0" /></g></g><g
       id="g528"><g
         id="g530"
         clip-path="url(#clipPath532)"><path
           d="m 465.52,218.32 c -3.32,10.36 3.85,21.91 16.01,25.81 12.16,3.9 24.71,-1.33 28.03,-11.69 3.32,-10.35 -3.84,-21.91 -16.01,-25.81 -12.16,-3.9 -24.71,1.34 -28.03,11.69 z"
           style="fill:#000000;fill-opacity:1;fill-rule:evenodd;stroke:none"
           id="path536"
           inkscape:connector-curvature="0" /></g></g><g
       id="g538"><g
         id="g540"
         clip-path="url(#clipPath542)"><path
           d="m 465.52,218.32 c -3.32,10.36 3.85,21.91 16.01,25.81 12.16,3.9 24.71,-1.33 28.03,-11.69 3.32,-10.35 -3.84,-21.91 -16.01,-25.81 -12.16,-3.9 -24.71,1.34 -28.03,11.69 z"
           style="fill:none;stroke:#000000;stroke-width:2;stroke-linecap:butt;stroke-linejoin:round;stroke-miterlimit:10;stroke-opacity:1;stroke-dasharray:none"
           id="path546"
           inkscape:connector-curvature="0" /></g></g><g
       id="g548"><g
         id="g550"
         clip-path="url(#clipPath552)"><path
           d="m 465.86,216.98 44.17,14.16 14.4,-44.93 -44.16,-14.16 -14.41,44.93 z"
           style="fill:#000000;fill-opacity:1;fill-rule:evenodd;stroke:none"
           id="path556"
           inkscape:connector-curvature="0" /></g></g><g
       id="g558"><g
         id="g560"
         clip-path="url(#clipPath562)"><path
           d="m 465.86,216.98 44.17,14.16 14.4,-44.93 -44.16,-14.16 -14.41,44.93 z"
           style="fill:none;stroke:#000000;stroke-width:2;stroke-linecap:butt;stroke-linejoin:round;stroke-miterlimit:10;stroke-opacity:1;stroke-dasharray:none"
           id="path566"
           inkscape:connector-curvature="0" /></g></g><g
       id="g568"><g
         id="g570"
         clip-path="url(#clipPath572)"><path
           d="m 429.3,219.57 38.159,0 0,13.214 -38.159,0 0,-13.214 z"
           style="fill:#000000;fill-opacity:1;fill-rule:evenodd;stroke:none"
           id="path576"
           inkscape:connector-curvature="0" /></g></g><g
       id="g578"><g
         id="g580"
         clip-path="url(#clipPath582)"><path
           d="m 429.3,219.57 38.159,0 0,13.214 -38.159,0 0,-13.214 z"
           style="fill:none;stroke:#000000;stroke-width:2;stroke-linecap:butt;stroke-linejoin:round;stroke-miterlimit:10;stroke-opacity:1;stroke-dasharray:none"
           id="path586"
           inkscape:connector-curvature="0" /></g></g><g
       id="g588"><g
         id="g590"
         clip-path="url(#clipPath592)"><path
           d="m 494.44,197.54 10.68,-7.78 -22.47,-30.84 -10.68,7.78 22.47,30.84 z"
           style="fill:#000000;fill-opacity:1;fill-rule:evenodd;stroke:none"
           id="path596"
           inkscape:connector-curvature="0" /></g></g><g
       id="g598"><g
         id="g600"
         clip-path="url(#clipPath602)"><path
           d="m 494.44,197.54 10.68,-7.78 -22.47,-30.84 -10.68,7.78 22.47,30.84 z"
           style="fill:none;stroke:#000000;stroke-width:2;stroke-linecap:butt;stroke-linejoin:round;stroke-miterlimit:10;stroke-opacity:1;stroke-dasharray:none"
           id="path606"
           inkscape:connector-curvature="0" /></g></g><g
       id="g608"><g
         id="g610"
         clip-path="url(#clipPath612)"><path
           d="m 471.68,165.85 12.94,2.7 6.29,-30.13 -12.94,-2.7 -6.29,30.13 z"
           style="fill:#000000;fill-opacity:1;fill-rule:evenodd;stroke:none"
           id="path616"
           inkscape:connector-curvature="0" /></g></g><g
       id="g618"><g
         id="g620"
         clip-path="url(#clipPath622)"><path
           d="m 471.68,165.85 12.94,2.7 6.29,-30.13 -12.94,-2.7 -6.29,30.13 z"
           style="fill:none;stroke:#000000;stroke-width:2;stroke-linecap:butt;stroke-linejoin:round;stroke-miterlimit:10;stroke-opacity:1;stroke-dasharray:none"
           id="path626"
           inkscape:connector-curvature="0" /></g></g><g
       id="g628"><g
         id="g630"
         clip-path="url(#clipPath632)"><path
           d="m 500.1,193.65 12.33,4.75 13.71,-35.61 -12.34,-4.75 -13.7,35.61 z"
           style="fill:#000000;fill-opacity:1;fill-rule:evenodd;stroke:none"
           id="path636"
           inkscape:connector-curvature="0" /></g></g><g
       id="g638"><g
         id="g640"
         clip-path="url(#clipPath642)"><path
           d="m 500.1,193.65 12.33,4.75 13.71,-35.61 -12.34,-4.75 -13.7,35.61 z"
           style="fill:none;stroke:#000000;stroke-width:2;stroke-linecap:butt;stroke-linejoin:round;stroke-miterlimit:10;stroke-opacity:1;stroke-dasharray:none"
           id="path646"
           inkscape:connector-curvature="0" /></g></g><g
       id="g648"><g
         id="g650"
         clip-path="url(#clipPath652)"><path
           d="m 514.87,157.43 5,12.23 25.34,-10.36 -5,-12.23 -25.34,10.36 z"
           style="fill:#000000;fill-opacity:1;fill-rule:evenodd;stroke:none"
           id="path656"
           inkscape:connector-curvature="0" /></g></g><g
       id="g658"><g
         id="g660"
         clip-path="url(#clipPath662)"><path
           d="m 514.87,157.43 5,12.23 25.34,-10.36 -5,-12.23 -25.34,10.36 z"
           style="fill:none;stroke:#000000;stroke-width:2;stroke-linecap:butt;stroke-linejoin:round;stroke-miterlimit:10;stroke-opacity:1;stroke-dasharray:none"
           id="path666"
           inkscape:connector-curvature="0" /></g></g><path
       d="m 457.22,256.92 c 0,3.26 3.24,5.91 7.23,5.91 4,0 7.23,-2.65 7.23,-5.91 0,-3.26 -3.23,-5.9 -7.23,-5.9 -3.99,0 -7.23,2.64 -7.23,5.9 z"
       style="fill:#ffffff;fill-opacity:1;fill-rule:evenodd;stroke:none"
       id="path668"
       inkscape:connector-curvature="0" /><path
       d="m 457.22,256.92 c 0,3.26 3.24,5.91 7.23,5.91 4,0 7.23,-2.65 7.23,-5.91 0,-3.26 -3.23,-5.9 -7.23,-5.9 -3.99,0 -7.23,2.64 -7.23,5.9 z"
       style="fill:none;stroke:#ffffff;stroke-width:2;stroke-linecap:butt;stroke-linejoin:round;stroke-miterlimit:10;stroke-opacity:1;stroke-dasharray:none"
       id="path670"
       inkscape:connector-curvature="0" /><g
       id="g672"><g
         id="g674"
         clip-path="url(#clipPath676)"><path
           d="m 519.81,168.59 -28.36,47.28 18.47,11.07 c 14.18,-23.63 21.22,-19.41 31.4,-45.45 l -21.51,-12.9 z"
           style="fill:#000000;fill-opacity:1;fill-rule:evenodd;stroke:none"
           id="path680"
           inkscape:connector-curvature="0" /></g></g><g
       id="g682"><g
         id="g684"
         clip-path="url(#clipPath686)"><path
           d="m 519.81,168.59 -28.36,47.28 18.47,11.07 c 14.18,-23.63 21.22,-19.41 31.4,-45.45 l -21.51,-12.9 z"
           style="fill:none;stroke:#000000;stroke-width:2;stroke-linecap:butt;stroke-linejoin:round;stroke-miterlimit:10;stroke-opacity:1;stroke-dasharray:none"
           id="path690"
           inkscape:connector-curvature="0" /></g></g><g
       id="g692"><g
         id="g694"
         clip-path="url(#clipPath696)"><path
           d="m 488.64,184.82 26.53,-4.3 -2.01,-12.38 c -13.26,2.15 -14.03,-2.57 -26.85,2.26 l 2.33,14.42 z"
           style="fill:#000000;fill-opacity:1;fill-rule:evenodd;stroke:none"
           id="path700"
           inkscape:connector-curvature="0" /></g></g><g
       id="g702"><g
         id="g704"
         clip-path="url(#clipPath706)"><path
           d="m 488.64,184.82 26.53,-4.3 -2.01,-12.38 c -13.26,2.15 -14.03,-2.57 -26.85,2.26 l 2.33,14.42 z"
           style="fill:none;stroke:#000000;stroke-width:2;stroke-linecap:butt;stroke-linejoin:round;stroke-miterlimit:10;stroke-opacity:1;stroke-dasharray:none"
           id="path710"
           inkscape:connector-curvature="0" /></g></g></g></svg>