<?xml version="1.0" encoding="UTF-8" standalone="no"?>
<!-- Created with Inkscape (http://www.inkscape.org/) -->

<svg
   xmlns:dc="http://purl.org/dc/elements/1.1/"
   xmlns:cc="http://creativecommons.org/ns#"
   xmlns:rdf="http://www.w3.org/1999/02/22-rdf-syntax-ns#"
   xmlns:svg="http://www.w3.org/2000/svg"
   xmlns="http://www.w3.org/2000/svg"
   xmlns:sodipodi="http://sodipodi.sourceforge.net/DTD/sodipodi-0.dtd"
   xmlns:inkscape="http://www.inkscape.org/namespaces/inkscape"
   id="svg2"
   version="1.1"
   inkscape:version="0.48.4 r9939"
   width="147"
   height="147"
   xml:space="preserve"
   sodipodi:docname="place.svg"><metadata
     id="metadata8"><rdf:RDF><cc:Work
         rdf:about=""><dc:format>image/svg+xml</dc:format><dc:type
           rdf:resource="http://purl.org/dc/dcmitype/StillImage" /><dc:title /></cc:Work></rdf:RDF></metadata><defs
     id="defs6"><clipPath
       clipPathUnits="userSpaceOnUse"
       id="clipPath16"><path
         d="m 0,9.155e-6 720,0 0,450.000000845 -720,0 L 0,9.155e-6 z"
         clip-rule="evenodd"
         id="path18"
         inkscape:connector-curvature="0" /></clipPath><clipPath
       clipPathUnits="userSpaceOnUse"
       id="clipPath54"><path
         d="M -3.298e-6,450 720,450 720,-9.155e-6 -2.926e-6,-6.104e-6"
         clip-rule="evenodd"
         id="path56"
         inkscape:connector-curvature="0" /></clipPath><clipPath
       clipPathUnits="userSpaceOnUse"
       id="clipPath100"><path
         d="M 3.36e-7,450 720,450 720,1.2207e-4 3.36e-7,1.2207e-4"
         clip-rule="evenodd"
         id="path102"
         inkscape:connector-curvature="0" /></clipPath><clipPath
       clipPathUnits="userSpaceOnUse"
       id="clipPath110"><path
         d="M 3.36e-7,450 720,450 720,1.2207e-4 3.36e-7,1.2207e-4"
         clip-rule="evenodd"
         id="path112"
         inkscape:connector-curvature="0" /></clipPath></defs><sodipodi:namedview
     pagecolor="#ffffff"
     bordercolor="#666666"
     borderopacity="1"
     objecttolerance="10"
     gridtolerance="10"
     guidetolerance="10"
     inkscape:pageopacity="0"
     inkscape:pageshadow="2"
     inkscape:window-width="1920"
     inkscape:window-height="1138"
     id="namedview4"
     showgrid="false"
     fit-margin-top="0"
     fit-margin-left="0"
     fit-margin-right="0"
     fit-margin-bottom="0"
     inkscape:zoom="3.0933333"
     inkscape:cx="119.52609"
     inkscape:cy="65.021649"
     inkscape:window-x="-8"
     inkscape:window-y="-8"
     inkscape:window-maximized="1"
     inkscape:current-layer="g10" /><g
     id="g10"
     inkscape:groupmode="layer"
     inkscape:label="STABaaaa"
     transform="matrix(1.25,0,0,-1.25,-326.91406,417.78125)"><path
       d="m 266.17,219.65 16.94,16.37 74.4,0 16.94,-16.37 -108.28,0 z"
       style="fill:#4daf4a;fill-opacity:1;fill-rule:evenodd;stroke:#4daf4a;stroke-opacity:1"
       id="path60"
       inkscape:connector-curvature="0" /><path
       d="m 266.15144,219.06593 16.79907,24.77953 73.78104,0 16.79907,-24.77953 -107.37918,0 z"
       style="fill:#ffffff;stroke:#4daf4a;stroke-width:4.90081309999999970;stroke-linecap:butt;stroke-linejoin:miter;stroke-miterlimit:10;stroke-opacity:1;stroke-dasharray:none;fill-opacity:1"
       id="path62"
       inkscape:connector-curvature="0" /><path
       d="m 286.29,298.71 c 0,18.79 15.23,34.02 34.02,34.02 18.79,0 34.02,-15.23 34.02,-34.02 0,-18.79 -15.23,-34.02 -34.02,-34.02 -18.79,0 -34.02,15.23 -34.02,34.02 z"
       style="fill:#4daf4a;fill-opacity:1;fill-rule:evenodd;stroke:#4daf4a;stroke-opacity:1"
       id="path64"
       inkscape:connector-curvature="0" /><path
       d="m 286.29,298.71 c 0,18.79 15.23,34.02 34.02,34.02 18.79,0 34.02,-15.23 34.02,-34.02 0,-18.79 -15.23,-34.02 -34.02,-34.02 -18.79,0 -34.02,15.23 -34.02,34.02 z"
       style="fill:#4daf4a;stroke:#4daf4a;stroke-width:2;stroke-linecap:butt;stroke-linejoin:round;stroke-miterlimit:10;stroke-opacity:1;stroke-dasharray:none;fill-opacity:1"
       id="path66"
       inkscape:connector-curvature="0" /><path
       d="m 309.69,298.71 c 0,5.86 4.76,10.62 10.62,10.62 5.87,0 10.62,-4.76 10.62,-10.62 0,-5.87 -4.75,-10.62 -10.62,-10.62 -5.86,0 -10.62,4.75 -10.62,10.62 z"
       style="fill:#4daf4a;fill-opacity:1;fill-rule:evenodd;stroke:#4daf4a;stroke-opacity:1"
       id="path68"
       inkscape:connector-curvature="0" /><path
       d="m 309.69,298.71 c 0,5.86 4.76,10.62 10.62,10.62 5.87,0 10.62,-4.76 10.62,-10.62 0,-5.87 -4.75,-10.62 -10.62,-10.62 -5.86,0 -10.62,4.75 -10.62,10.62 z"
       style="fill:#ffffff;stroke:#ffffff;stroke-width:2;stroke-linecap:butt;stroke-linejoin:round;stroke-miterlimit:10;stroke-opacity:1;stroke-dasharray:none;fill-opacity:1"
       id="path70"
       inkscape:connector-curvature="0" /><path
       d="m 334.49,278.86 -14.18,-51.03 -14.17,51.03 28.35,0 z"
       style="fill:#4daf4a;fill-opacity:1;fill-rule:evenodd;stroke:#4daf4a;stroke-opacity:1"
       id="path72"
       inkscape:connector-curvature="0" /><path
       d="m 334.49,278.86 -14.18,-51.03 -14.17,51.03 28.35,0 z"
       style="fill:#4daf4a;stroke:#4daf4a;stroke-width:2;stroke-linecap:butt;stroke-linejoin:round;stroke-miterlimit:10;stroke-opacity:1;stroke-dasharray:none;fill-opacity:1"
       id="path74"
       inkscape:connector-curvature="0" /></g></svg>