<?xml version="1.0" encoding="UTF-8" standalone="no"?>
<!-- Created with Inkscape (http://www.inkscape.org/) -->

<svg
   xmlns:dc="http://purl.org/dc/elements/1.1/"
   xmlns:cc="http://creativecommons.org/ns#"
   xmlns:rdf="http://www.w3.org/1999/02/22-rdf-syntax-ns#"
   xmlns:svg="http://www.w3.org/2000/svg"
   xmlns="http://www.w3.org/2000/svg"
   xmlns:sodipodi="http://sodipodi.sourceforge.net/DTD/sodipodi-0.dtd"
   xmlns:inkscape="http://www.inkscape.org/namespaces/inkscape"
   id="svg2"
   version="1.1"
   inkscape:version="0.48.4 r9939"
   width="134"
   height="134"
   xml:space="preserve"
   sodipodi:docname="time.svg"><metadata
     id="metadata8"><rdf:RDF><cc:Work
         rdf:about=""><dc:format>image/svg+xml</dc:format><dc:type
           rdf:resource="http://purl.org/dc/dcmitype/StillImage" /><dc:title /></cc:Work></rdf:RDF></metadata><defs
     id="defs6"><clipPath
       clipPathUnits="userSpaceOnUse"
       id="clipPath16"><path
         d="m 0,9.155e-6 720,0 0,450.000000845 -720,0 L 0,9.155e-6 z"
         clip-rule="evenodd"
         id="path18"
         inkscape:connector-curvature="0" /></clipPath><clipPath
       clipPathUnits="userSpaceOnUse"
       id="clipPath50"><path
         d="M -3.298e-6,450 720,450 720,-9.155e-6 -2.926e-6,-6.104e-6"
         clip-rule="evenodd"
         id="path52"
         inkscape:connector-curvature="0" /></clipPath><clipPath
       clipPathUnits="userSpaceOnUse"
       id="clipPath96"><path
         d="M 3.36e-7,450 720,450 720,1.2207e-4 3.36e-7,1.2207e-4"
         clip-rule="evenodd"
         id="path98"
         inkscape:connector-curvature="0" /></clipPath><clipPath
       clipPathUnits="userSpaceOnUse"
       id="clipPath106"><path
         d="M 3.36e-7,450 720,450 720,1.2207e-4 3.36e-7,1.2207e-4"
         clip-rule="evenodd"
         id="path108"
         inkscape:connector-curvature="0" /></clipPath></defs><sodipodi:namedview
     pagecolor="#ffffff"
     bordercolor="#666666"
     borderopacity="1"
     objecttolerance="10"
     gridtolerance="10"
     guidetolerance="10"
     inkscape:pageopacity="0"
     inkscape:pageshadow="2"
     inkscape:window-width="1920"
     inkscape:window-height="1138"
     id="namedview4"
     showgrid="false"
     fit-margin-top="0"
     fit-margin-left="0"
     fit-margin-right="0"
     fit-margin-bottom="0"
     inkscape:zoom="2.187317"
     inkscape:cx="-14.657671"
     inkscape:cy="85.613197"
     inkscape:window-x="-8"
     inkscape:window-y="-8"
     inkscape:window-maximized="1"
     inkscape:current-layer="g10" /><g
     id="g10"
     inkscape:groupmode="layer"
     inkscape:label="STABaaaa"
     transform="matrix(1.25,0,0,-1.25,-119.57031,179.3125)"><path
   d="m 101.11,38.492 96.389,0 0,102.12 -96.389,0 0,-102.12 z"
   style="fill:#ffffff;fill-opacity:1;fill-rule:evenodd;stroke:none"
   id="path116"
   inkscape:connector-curvature="0" /><path
   d="m 101.11,38.492 96.389,0 0,102.12 -96.389,0 0,-102.12 z"
   style="fill:none;stroke:#377eb8;stroke-width:4.50000000000000000;stroke-linecap:butt;stroke-linejoin:miter;stroke-miterlimit:8;stroke-opacity:1;stroke-dasharray:none"
   id="path118"
   inkscape:connector-curvature="0" /><path
   d="m 101.11,117.27 96.389,0 0,23.34 -96.389,0 0,-23.34 z"
   style="fill:#377eb8;fill-opacity:1;fill-rule:evenodd;stroke:none"
   id="path120"
   inkscape:connector-curvature="0" /><path
   d="m 101.11,117.27 96.389,0 0,23.34 -96.389,0 0,-23.34 z"
   style="fill:none;stroke:#377eb8;stroke-width:4.50000000000000000;stroke-linecap:butt;stroke-linejoin:miter;stroke-miterlimit:8;stroke-opacity:1;stroke-dasharray:none"
   id="path122"
   inkscape:connector-curvature="0" /><g
   transform="scale(1,-1)"
   style="font-size:16.07913589000000000px;stroke:none;stroke-opacity:1;fill:#377eb8;fill-opacity:1"
   id="text124"><path
     d="m 127.82581,-88.474439 -8.48904,6.045379 -5.33878,-8.10434 15.24299,-9.90421 10.54801,0 0,44.892818 -11.96318,0 z"
     style="font-size:64.31654358000000100px;font-variant:normal;font-weight:bold;writing-mode:lr-tb;fill:#377eb8;fill-opacity:1;fill-rule:nonzero;stroke:none;font-family:Frutiger LT 55 Roman;-inkscape-font-specification:'Frutiger LT 55 Roman, Bold';stroke-opacity:1"
     id="path3024" /><path
     d="m 153.26234,-99.344343 c 2.0583,-0.600568 4.1274,-1.061497 6.20731,-1.382777 2.07988,-0.3212 4.36293,-0.48182 6.84914,-0.48187 2.10147,5e-5 4.20263,0.18226 6.30348,0.54664 2.10081,0.36447 3.98737,1.007604 5.65969,1.929415 1.67226,0.921897 3.03378,2.176115 4.08456,3.762659 1.05071,1.586623 1.57608,3.601419 1.57611,6.044397 -3e-5,2.572588 -0.75047,4.684542 -2.25131,6.33587 -1.50091,1.651382 -3.4951,2.819893 -5.98257,3.505535 l 0,0.127581 c 2.70207,0.557453 4.86768,1.693905 6.49682,3.409357 1.62908,1.715493 2.44363,3.988396 2.44367,6.818716 -4e-5,2.785857 -0.61112,5.068574 -1.83324,6.848157 -1.2222,1.779597 -2.78719,3.205559 -4.69499,4.277891 -1.90785,1.072336 -4.01948,1.811978 -6.33489,2.218928 -2.31545,0.40695 -4.56643,0.610426 -6.75296,0.610426 -2.52939,0 -4.94132,-0.106972 -7.23581,-0.320915 -2.2945,-0.213944 -4.2563,-0.621221 -5.88541,-1.221834 l 0.57903,-9.454736 c 1.45769,0.857092 3.14077,1.424991 5.04926,1.703698 1.90847,0.278723 3.93439,0.418081 6.07776,0.418073 0.90025,8e-6 1.87576,-0.0857 2.92652,-0.257125 1.05072,-0.171408 2.02623,-0.460918 2.92651,-0.868532 0.90024,-0.407596 1.66115,-0.98629 2.28272,-1.736084 0.62152,-0.749772 0.9323,-1.703685 0.93232,-2.861741 -2e-5,-1.158028 -0.28921,-2.079882 -0.86755,-2.765564 -0.57839,-0.685649 -1.29644,-1.200225 -2.15416,-1.54373 -0.85775,-0.343469 -1.75834,-0.568862 -2.70177,-0.67618 -0.94346,-0.10728 -1.75802,-0.160929 -2.44367,-0.160948 -0.98664,1.9e-5 -1.88723,0.01081 -2.70177,0.03239 -0.81457,0.02161 -1.58627,0.054 -2.31511,0.09716 l 0,-7.974796 c 1.02849,0.08508 1.92875,0.127607 2.7008,0.127581 0.77201,2.6e-5 1.58657,2.6e-5 2.44366,0 0.68696,2.6e-5 1.45899,-0.08568 2.31609,-0.257125 0.85706,-0.17139 1.65003,-0.450105 2.3789,-0.836147 0.72882,-0.385986 1.3507,-0.900562 1.86562,-1.54373 0.51488,-0.643109 0.77234,-1.41481 0.77236,-2.315105 -2e-5,-1.071648 -0.23589,-1.939853 -0.70759,-2.604616 -0.47174,-0.664695 -1.07202,-1.190067 -1.80085,-1.576117 -0.72887,-0.385978 -1.55422,-0.643102 -2.47605,-0.771374 -0.92188,-0.128199 -1.83293,-0.192316 -2.73318,-0.192353 -2.01514,3.7e-5 -3.93409,0.149862 -5.75685,0.449478 -1.82278,0.299688 -3.37731,0.749819 -4.66358,1.350396 z"
     style="font-size:64.31654358000000100px;font-variant:normal;font-weight:bold;writing-mode:lr-tb;fill:#377eb8;fill-opacity:1;fill-rule:nonzero;stroke:none;font-family:Frutiger LT 55 Roman;-inkscape-font-specification:'Frutiger LT 55 Roman, Bold';stroke-opacity:1"
     id="path3026" /></g>

</g></svg>